%TF.GenerationSoftware,KiCad,Pcbnew,8.0.1*%
%TF.CreationDate,2025-08-12T22:43:48+02:00*%
%TF.ProjectId,niclas-alarmmelder-pro,6e69636c-6173-42d6-916c-61726d6d656c,rev?*%
%TF.SameCoordinates,Original*%
%TF.FileFunction,Legend,Top*%
%TF.FilePolarity,Positive*%
%FSLAX46Y46*%
G04 Gerber Fmt 4.6, Leading zero omitted, Abs format (unit mm)*
G04 Created by KiCad (PCBNEW 8.0.1) date 2025-08-12 22:43:48*
%MOMM*%
%LPD*%
G01*
G04 APERTURE LIST*
%ADD10C,0.150000*%
%ADD11C,0.200000*%
%ADD12C,0.125000*%
%ADD13C,0.120000*%
%ADD14C,0.100000*%
%ADD15C,0.127000*%
G04 APERTURE END LIST*
D10*
X82791541Y-74799819D02*
X83315350Y-74133152D01*
X82791541Y-74133152D02*
X83315350Y-74799819D01*
X84124874Y-74799819D02*
X84124874Y-74276009D01*
X84124874Y-74276009D02*
X84077255Y-74180771D01*
X84077255Y-74180771D02*
X83982017Y-74133152D01*
X83982017Y-74133152D02*
X83791541Y-74133152D01*
X83791541Y-74133152D02*
X83696303Y-74180771D01*
X84124874Y-74752200D02*
X84029636Y-74799819D01*
X84029636Y-74799819D02*
X83791541Y-74799819D01*
X83791541Y-74799819D02*
X83696303Y-74752200D01*
X83696303Y-74752200D02*
X83648684Y-74656961D01*
X83648684Y-74656961D02*
X83648684Y-74561723D01*
X83648684Y-74561723D02*
X83696303Y-74466485D01*
X83696303Y-74466485D02*
X83791541Y-74418866D01*
X83791541Y-74418866D02*
X84029636Y-74418866D01*
X84029636Y-74418866D02*
X84124874Y-74371247D01*
X84505827Y-74799819D02*
X85029636Y-74133152D01*
X84505827Y-74133152D02*
X85029636Y-74799819D01*
X85839160Y-74799819D02*
X85839160Y-74276009D01*
X85839160Y-74276009D02*
X85791541Y-74180771D01*
X85791541Y-74180771D02*
X85696303Y-74133152D01*
X85696303Y-74133152D02*
X85505827Y-74133152D01*
X85505827Y-74133152D02*
X85410589Y-74180771D01*
X85839160Y-74752200D02*
X85743922Y-74799819D01*
X85743922Y-74799819D02*
X85505827Y-74799819D01*
X85505827Y-74799819D02*
X85410589Y-74752200D01*
X85410589Y-74752200D02*
X85362970Y-74656961D01*
X85362970Y-74656961D02*
X85362970Y-74561723D01*
X85362970Y-74561723D02*
X85410589Y-74466485D01*
X85410589Y-74466485D02*
X85505827Y-74418866D01*
X85505827Y-74418866D02*
X85743922Y-74418866D01*
X85743922Y-74418866D02*
X85839160Y-74371247D01*
X86220113Y-74799819D02*
X86743922Y-74133152D01*
X86220113Y-74133152D02*
X86743922Y-74799819D01*
X87553446Y-74799819D02*
X87553446Y-74276009D01*
X87553446Y-74276009D02*
X87505827Y-74180771D01*
X87505827Y-74180771D02*
X87410589Y-74133152D01*
X87410589Y-74133152D02*
X87220113Y-74133152D01*
X87220113Y-74133152D02*
X87124875Y-74180771D01*
X87553446Y-74752200D02*
X87458208Y-74799819D01*
X87458208Y-74799819D02*
X87220113Y-74799819D01*
X87220113Y-74799819D02*
X87124875Y-74752200D01*
X87124875Y-74752200D02*
X87077256Y-74656961D01*
X87077256Y-74656961D02*
X87077256Y-74561723D01*
X87077256Y-74561723D02*
X87124875Y-74466485D01*
X87124875Y-74466485D02*
X87220113Y-74418866D01*
X87220113Y-74418866D02*
X87458208Y-74418866D01*
X87458208Y-74418866D02*
X87553446Y-74371247D01*
X87934399Y-74799819D02*
X88458208Y-74133152D01*
X87934399Y-74133152D02*
X88458208Y-74799819D01*
X89267732Y-74799819D02*
X89267732Y-74276009D01*
X89267732Y-74276009D02*
X89220113Y-74180771D01*
X89220113Y-74180771D02*
X89124875Y-74133152D01*
X89124875Y-74133152D02*
X88934399Y-74133152D01*
X88934399Y-74133152D02*
X88839161Y-74180771D01*
X89267732Y-74752200D02*
X89172494Y-74799819D01*
X89172494Y-74799819D02*
X88934399Y-74799819D01*
X88934399Y-74799819D02*
X88839161Y-74752200D01*
X88839161Y-74752200D02*
X88791542Y-74656961D01*
X88791542Y-74656961D02*
X88791542Y-74561723D01*
X88791542Y-74561723D02*
X88839161Y-74466485D01*
X88839161Y-74466485D02*
X88934399Y-74418866D01*
X88934399Y-74418866D02*
X89172494Y-74418866D01*
X89172494Y-74418866D02*
X89267732Y-74371247D01*
X149799922Y-71085152D02*
X150180874Y-71085152D01*
X149942779Y-70751819D02*
X149942779Y-71608961D01*
X149942779Y-71608961D02*
X149990398Y-71704200D01*
X149990398Y-71704200D02*
X150085636Y-71751819D01*
X150085636Y-71751819D02*
X150180874Y-71751819D01*
X150657065Y-71751819D02*
X150561827Y-71704200D01*
X150561827Y-71704200D02*
X150514208Y-71656580D01*
X150514208Y-71656580D02*
X150466589Y-71561342D01*
X150466589Y-71561342D02*
X150466589Y-71275628D01*
X150466589Y-71275628D02*
X150514208Y-71180390D01*
X150514208Y-71180390D02*
X150561827Y-71132771D01*
X150561827Y-71132771D02*
X150657065Y-71085152D01*
X150657065Y-71085152D02*
X150799922Y-71085152D01*
X150799922Y-71085152D02*
X150895160Y-71132771D01*
X150895160Y-71132771D02*
X150942779Y-71180390D01*
X150942779Y-71180390D02*
X150990398Y-71275628D01*
X150990398Y-71275628D02*
X150990398Y-71561342D01*
X150990398Y-71561342D02*
X150942779Y-71656580D01*
X150942779Y-71656580D02*
X150895160Y-71704200D01*
X150895160Y-71704200D02*
X150799922Y-71751819D01*
X150799922Y-71751819D02*
X150657065Y-71751819D01*
X152704684Y-70799438D02*
X152609446Y-70751819D01*
X152609446Y-70751819D02*
X152466589Y-70751819D01*
X152466589Y-70751819D02*
X152323732Y-70799438D01*
X152323732Y-70799438D02*
X152228494Y-70894676D01*
X152228494Y-70894676D02*
X152180875Y-70989914D01*
X152180875Y-70989914D02*
X152133256Y-71180390D01*
X152133256Y-71180390D02*
X152133256Y-71323247D01*
X152133256Y-71323247D02*
X152180875Y-71513723D01*
X152180875Y-71513723D02*
X152228494Y-71608961D01*
X152228494Y-71608961D02*
X152323732Y-71704200D01*
X152323732Y-71704200D02*
X152466589Y-71751819D01*
X152466589Y-71751819D02*
X152561827Y-71751819D01*
X152561827Y-71751819D02*
X152704684Y-71704200D01*
X152704684Y-71704200D02*
X152752303Y-71656580D01*
X152752303Y-71656580D02*
X152752303Y-71323247D01*
X152752303Y-71323247D02*
X152561827Y-71323247D01*
X153180875Y-71751819D02*
X153180875Y-70751819D01*
X153180875Y-70751819D02*
X153752303Y-71751819D01*
X153752303Y-71751819D02*
X153752303Y-70751819D01*
X154228494Y-71751819D02*
X154228494Y-70751819D01*
X154228494Y-70751819D02*
X154466589Y-70751819D01*
X154466589Y-70751819D02*
X154609446Y-70799438D01*
X154609446Y-70799438D02*
X154704684Y-70894676D01*
X154704684Y-70894676D02*
X154752303Y-70989914D01*
X154752303Y-70989914D02*
X154799922Y-71180390D01*
X154799922Y-71180390D02*
X154799922Y-71323247D01*
X154799922Y-71323247D02*
X154752303Y-71513723D01*
X154752303Y-71513723D02*
X154704684Y-71608961D01*
X154704684Y-71608961D02*
X154609446Y-71704200D01*
X154609446Y-71704200D02*
X154466589Y-71751819D01*
X154466589Y-71751819D02*
X154228494Y-71751819D01*
X128813160Y-72720200D02*
X128908398Y-72767819D01*
X128908398Y-72767819D02*
X129098874Y-72767819D01*
X129098874Y-72767819D02*
X129194112Y-72720200D01*
X129194112Y-72720200D02*
X129241731Y-72624961D01*
X129241731Y-72624961D02*
X129241731Y-72577342D01*
X129241731Y-72577342D02*
X129194112Y-72482104D01*
X129194112Y-72482104D02*
X129098874Y-72434485D01*
X129098874Y-72434485D02*
X128956017Y-72434485D01*
X128956017Y-72434485D02*
X128860779Y-72386866D01*
X128860779Y-72386866D02*
X128813160Y-72291628D01*
X128813160Y-72291628D02*
X128813160Y-72244009D01*
X128813160Y-72244009D02*
X128860779Y-72148771D01*
X128860779Y-72148771D02*
X128956017Y-72101152D01*
X128956017Y-72101152D02*
X129098874Y-72101152D01*
X129098874Y-72101152D02*
X129194112Y-72148771D01*
X130098874Y-72767819D02*
X130098874Y-72244009D01*
X130098874Y-72244009D02*
X130051255Y-72148771D01*
X130051255Y-72148771D02*
X129956017Y-72101152D01*
X129956017Y-72101152D02*
X129765541Y-72101152D01*
X129765541Y-72101152D02*
X129670303Y-72148771D01*
X130098874Y-72720200D02*
X130003636Y-72767819D01*
X130003636Y-72767819D02*
X129765541Y-72767819D01*
X129765541Y-72767819D02*
X129670303Y-72720200D01*
X129670303Y-72720200D02*
X129622684Y-72624961D01*
X129622684Y-72624961D02*
X129622684Y-72529723D01*
X129622684Y-72529723D02*
X129670303Y-72434485D01*
X129670303Y-72434485D02*
X129765541Y-72386866D01*
X129765541Y-72386866D02*
X130003636Y-72386866D01*
X130003636Y-72386866D02*
X130098874Y-72339247D01*
X130575065Y-72767819D02*
X130575065Y-72101152D01*
X130575065Y-72196390D02*
X130622684Y-72148771D01*
X130622684Y-72148771D02*
X130717922Y-72101152D01*
X130717922Y-72101152D02*
X130860779Y-72101152D01*
X130860779Y-72101152D02*
X130956017Y-72148771D01*
X130956017Y-72148771D02*
X131003636Y-72244009D01*
X131003636Y-72244009D02*
X131003636Y-72767819D01*
X131003636Y-72244009D02*
X131051255Y-72148771D01*
X131051255Y-72148771D02*
X131146493Y-72101152D01*
X131146493Y-72101152D02*
X131289350Y-72101152D01*
X131289350Y-72101152D02*
X131384589Y-72148771D01*
X131384589Y-72148771D02*
X131432208Y-72244009D01*
X131432208Y-72244009D02*
X131432208Y-72767819D01*
X131908398Y-72101152D02*
X131908398Y-73101152D01*
X131908398Y-72148771D02*
X132003636Y-72101152D01*
X132003636Y-72101152D02*
X132194112Y-72101152D01*
X132194112Y-72101152D02*
X132289350Y-72148771D01*
X132289350Y-72148771D02*
X132336969Y-72196390D01*
X132336969Y-72196390D02*
X132384588Y-72291628D01*
X132384588Y-72291628D02*
X132384588Y-72577342D01*
X132384588Y-72577342D02*
X132336969Y-72672580D01*
X132336969Y-72672580D02*
X132289350Y-72720200D01*
X132289350Y-72720200D02*
X132194112Y-72767819D01*
X132194112Y-72767819D02*
X132003636Y-72767819D01*
X132003636Y-72767819D02*
X131908398Y-72720200D01*
X132956017Y-72767819D02*
X132860779Y-72720200D01*
X132860779Y-72720200D02*
X132813160Y-72624961D01*
X132813160Y-72624961D02*
X132813160Y-71767819D01*
X133717922Y-72720200D02*
X133622684Y-72767819D01*
X133622684Y-72767819D02*
X133432208Y-72767819D01*
X133432208Y-72767819D02*
X133336970Y-72720200D01*
X133336970Y-72720200D02*
X133289351Y-72624961D01*
X133289351Y-72624961D02*
X133289351Y-72244009D01*
X133289351Y-72244009D02*
X133336970Y-72148771D01*
X133336970Y-72148771D02*
X133432208Y-72101152D01*
X133432208Y-72101152D02*
X133622684Y-72101152D01*
X133622684Y-72101152D02*
X133717922Y-72148771D01*
X133717922Y-72148771D02*
X133765541Y-72244009D01*
X133765541Y-72244009D02*
X133765541Y-72339247D01*
X133765541Y-72339247D02*
X133289351Y-72434485D01*
X134813161Y-72101152D02*
X135194113Y-72101152D01*
X134956018Y-71767819D02*
X134956018Y-72624961D01*
X134956018Y-72624961D02*
X135003637Y-72720200D01*
X135003637Y-72720200D02*
X135098875Y-72767819D01*
X135098875Y-72767819D02*
X135194113Y-72767819D01*
X135908399Y-72720200D02*
X135813161Y-72767819D01*
X135813161Y-72767819D02*
X135622685Y-72767819D01*
X135622685Y-72767819D02*
X135527447Y-72720200D01*
X135527447Y-72720200D02*
X135479828Y-72624961D01*
X135479828Y-72624961D02*
X135479828Y-72244009D01*
X135479828Y-72244009D02*
X135527447Y-72148771D01*
X135527447Y-72148771D02*
X135622685Y-72101152D01*
X135622685Y-72101152D02*
X135813161Y-72101152D01*
X135813161Y-72101152D02*
X135908399Y-72148771D01*
X135908399Y-72148771D02*
X135956018Y-72244009D01*
X135956018Y-72244009D02*
X135956018Y-72339247D01*
X135956018Y-72339247D02*
X135479828Y-72434485D01*
X136289352Y-72767819D02*
X136813161Y-72101152D01*
X136289352Y-72101152D02*
X136813161Y-72767819D01*
X137051257Y-72101152D02*
X137432209Y-72101152D01*
X137194114Y-71767819D02*
X137194114Y-72624961D01*
X137194114Y-72624961D02*
X137241733Y-72720200D01*
X137241733Y-72720200D02*
X137336971Y-72767819D01*
X137336971Y-72767819D02*
X137432209Y-72767819D01*
X137512588Y-65719438D02*
X137417350Y-65671819D01*
X137417350Y-65671819D02*
X137274493Y-65671819D01*
X137274493Y-65671819D02*
X137131636Y-65719438D01*
X137131636Y-65719438D02*
X137036398Y-65814676D01*
X137036398Y-65814676D02*
X136988779Y-65909914D01*
X136988779Y-65909914D02*
X136941160Y-66100390D01*
X136941160Y-66100390D02*
X136941160Y-66243247D01*
X136941160Y-66243247D02*
X136988779Y-66433723D01*
X136988779Y-66433723D02*
X137036398Y-66528961D01*
X137036398Y-66528961D02*
X137131636Y-66624200D01*
X137131636Y-66624200D02*
X137274493Y-66671819D01*
X137274493Y-66671819D02*
X137369731Y-66671819D01*
X137369731Y-66671819D02*
X137512588Y-66624200D01*
X137512588Y-66624200D02*
X137560207Y-66576580D01*
X137560207Y-66576580D02*
X137560207Y-66243247D01*
X137560207Y-66243247D02*
X137369731Y-66243247D01*
X137988779Y-66671819D02*
X137988779Y-65671819D01*
X137988779Y-65671819D02*
X138369731Y-65671819D01*
X138369731Y-65671819D02*
X138464969Y-65719438D01*
X138464969Y-65719438D02*
X138512588Y-65767057D01*
X138512588Y-65767057D02*
X138560207Y-65862295D01*
X138560207Y-65862295D02*
X138560207Y-66005152D01*
X138560207Y-66005152D02*
X138512588Y-66100390D01*
X138512588Y-66100390D02*
X138464969Y-66148009D01*
X138464969Y-66148009D02*
X138369731Y-66195628D01*
X138369731Y-66195628D02*
X137988779Y-66195628D01*
X138988779Y-66671819D02*
X138988779Y-65671819D01*
X139655445Y-65671819D02*
X139845921Y-65671819D01*
X139845921Y-65671819D02*
X139941159Y-65719438D01*
X139941159Y-65719438D02*
X140036397Y-65814676D01*
X140036397Y-65814676D02*
X140084016Y-66005152D01*
X140084016Y-66005152D02*
X140084016Y-66338485D01*
X140084016Y-66338485D02*
X140036397Y-66528961D01*
X140036397Y-66528961D02*
X139941159Y-66624200D01*
X139941159Y-66624200D02*
X139845921Y-66671819D01*
X139845921Y-66671819D02*
X139655445Y-66671819D01*
X139655445Y-66671819D02*
X139560207Y-66624200D01*
X139560207Y-66624200D02*
X139464969Y-66528961D01*
X139464969Y-66528961D02*
X139417350Y-66338485D01*
X139417350Y-66338485D02*
X139417350Y-66005152D01*
X139417350Y-66005152D02*
X139464969Y-65814676D01*
X139464969Y-65814676D02*
X139560207Y-65719438D01*
X139560207Y-65719438D02*
X139655445Y-65671819D01*
X141464969Y-65671819D02*
X141560207Y-65671819D01*
X141560207Y-65671819D02*
X141655445Y-65719438D01*
X141655445Y-65719438D02*
X141703064Y-65767057D01*
X141703064Y-65767057D02*
X141750683Y-65862295D01*
X141750683Y-65862295D02*
X141798302Y-66052771D01*
X141798302Y-66052771D02*
X141798302Y-66290866D01*
X141798302Y-66290866D02*
X141750683Y-66481342D01*
X141750683Y-66481342D02*
X141703064Y-66576580D01*
X141703064Y-66576580D02*
X141655445Y-66624200D01*
X141655445Y-66624200D02*
X141560207Y-66671819D01*
X141560207Y-66671819D02*
X141464969Y-66671819D01*
X141464969Y-66671819D02*
X141369731Y-66624200D01*
X141369731Y-66624200D02*
X141322112Y-66576580D01*
X141322112Y-66576580D02*
X141274493Y-66481342D01*
X141274493Y-66481342D02*
X141226874Y-66290866D01*
X141226874Y-66290866D02*
X141226874Y-66052771D01*
X141226874Y-66052771D02*
X141274493Y-65862295D01*
X141274493Y-65862295D02*
X141322112Y-65767057D01*
X141322112Y-65767057D02*
X141369731Y-65719438D01*
X141369731Y-65719438D02*
X141464969Y-65671819D01*
X142369731Y-66100390D02*
X142274493Y-66052771D01*
X142274493Y-66052771D02*
X142226874Y-66005152D01*
X142226874Y-66005152D02*
X142179255Y-65909914D01*
X142179255Y-65909914D02*
X142179255Y-65862295D01*
X142179255Y-65862295D02*
X142226874Y-65767057D01*
X142226874Y-65767057D02*
X142274493Y-65719438D01*
X142274493Y-65719438D02*
X142369731Y-65671819D01*
X142369731Y-65671819D02*
X142560207Y-65671819D01*
X142560207Y-65671819D02*
X142655445Y-65719438D01*
X142655445Y-65719438D02*
X142703064Y-65767057D01*
X142703064Y-65767057D02*
X142750683Y-65862295D01*
X142750683Y-65862295D02*
X142750683Y-65909914D01*
X142750683Y-65909914D02*
X142703064Y-66005152D01*
X142703064Y-66005152D02*
X142655445Y-66052771D01*
X142655445Y-66052771D02*
X142560207Y-66100390D01*
X142560207Y-66100390D02*
X142369731Y-66100390D01*
X142369731Y-66100390D02*
X142274493Y-66148009D01*
X142274493Y-66148009D02*
X142226874Y-66195628D01*
X142226874Y-66195628D02*
X142179255Y-66290866D01*
X142179255Y-66290866D02*
X142179255Y-66481342D01*
X142179255Y-66481342D02*
X142226874Y-66576580D01*
X142226874Y-66576580D02*
X142274493Y-66624200D01*
X142274493Y-66624200D02*
X142369731Y-66671819D01*
X142369731Y-66671819D02*
X142560207Y-66671819D01*
X142560207Y-66671819D02*
X142655445Y-66624200D01*
X142655445Y-66624200D02*
X142703064Y-66576580D01*
X142703064Y-66576580D02*
X142750683Y-66481342D01*
X142750683Y-66481342D02*
X142750683Y-66290866D01*
X142750683Y-66290866D02*
X142703064Y-66195628D01*
X142703064Y-66195628D02*
X142655445Y-66148009D01*
X142655445Y-66148009D02*
X142560207Y-66100390D01*
X144131636Y-65671819D02*
X144226874Y-65671819D01*
X144226874Y-65671819D02*
X144322112Y-65719438D01*
X144322112Y-65719438D02*
X144369731Y-65767057D01*
X144369731Y-65767057D02*
X144417350Y-65862295D01*
X144417350Y-65862295D02*
X144464969Y-66052771D01*
X144464969Y-66052771D02*
X144464969Y-66290866D01*
X144464969Y-66290866D02*
X144417350Y-66481342D01*
X144417350Y-66481342D02*
X144369731Y-66576580D01*
X144369731Y-66576580D02*
X144322112Y-66624200D01*
X144322112Y-66624200D02*
X144226874Y-66671819D01*
X144226874Y-66671819D02*
X144131636Y-66671819D01*
X144131636Y-66671819D02*
X144036398Y-66624200D01*
X144036398Y-66624200D02*
X143988779Y-66576580D01*
X143988779Y-66576580D02*
X143941160Y-66481342D01*
X143941160Y-66481342D02*
X143893541Y-66290866D01*
X143893541Y-66290866D02*
X143893541Y-66052771D01*
X143893541Y-66052771D02*
X143941160Y-65862295D01*
X143941160Y-65862295D02*
X143988779Y-65767057D01*
X143988779Y-65767057D02*
X144036398Y-65719438D01*
X144036398Y-65719438D02*
X144131636Y-65671819D01*
X144941160Y-66671819D02*
X145131636Y-66671819D01*
X145131636Y-66671819D02*
X145226874Y-66624200D01*
X145226874Y-66624200D02*
X145274493Y-66576580D01*
X145274493Y-66576580D02*
X145369731Y-66433723D01*
X145369731Y-66433723D02*
X145417350Y-66243247D01*
X145417350Y-66243247D02*
X145417350Y-65862295D01*
X145417350Y-65862295D02*
X145369731Y-65767057D01*
X145369731Y-65767057D02*
X145322112Y-65719438D01*
X145322112Y-65719438D02*
X145226874Y-65671819D01*
X145226874Y-65671819D02*
X145036398Y-65671819D01*
X145036398Y-65671819D02*
X144941160Y-65719438D01*
X144941160Y-65719438D02*
X144893541Y-65767057D01*
X144893541Y-65767057D02*
X144845922Y-65862295D01*
X144845922Y-65862295D02*
X144845922Y-66100390D01*
X144845922Y-66100390D02*
X144893541Y-66195628D01*
X144893541Y-66195628D02*
X144941160Y-66243247D01*
X144941160Y-66243247D02*
X145036398Y-66290866D01*
X145036398Y-66290866D02*
X145226874Y-66290866D01*
X145226874Y-66290866D02*
X145322112Y-66243247D01*
X145322112Y-66243247D02*
X145369731Y-66195628D01*
X145369731Y-66195628D02*
X145417350Y-66100390D01*
X147131636Y-66671819D02*
X146560208Y-66671819D01*
X146845922Y-66671819D02*
X146845922Y-65671819D01*
X146845922Y-65671819D02*
X146750684Y-65814676D01*
X146750684Y-65814676D02*
X146655446Y-65909914D01*
X146655446Y-65909914D02*
X146560208Y-65957533D01*
X147750684Y-65671819D02*
X147845922Y-65671819D01*
X147845922Y-65671819D02*
X147941160Y-65719438D01*
X147941160Y-65719438D02*
X147988779Y-65767057D01*
X147988779Y-65767057D02*
X148036398Y-65862295D01*
X148036398Y-65862295D02*
X148084017Y-66052771D01*
X148084017Y-66052771D02*
X148084017Y-66290866D01*
X148084017Y-66290866D02*
X148036398Y-66481342D01*
X148036398Y-66481342D02*
X147988779Y-66576580D01*
X147988779Y-66576580D02*
X147941160Y-66624200D01*
X147941160Y-66624200D02*
X147845922Y-66671819D01*
X147845922Y-66671819D02*
X147750684Y-66671819D01*
X147750684Y-66671819D02*
X147655446Y-66624200D01*
X147655446Y-66624200D02*
X147607827Y-66576580D01*
X147607827Y-66576580D02*
X147560208Y-66481342D01*
X147560208Y-66481342D02*
X147512589Y-66290866D01*
X147512589Y-66290866D02*
X147512589Y-66052771D01*
X147512589Y-66052771D02*
X147560208Y-65862295D01*
X147560208Y-65862295D02*
X147607827Y-65767057D01*
X147607827Y-65767057D02*
X147655446Y-65719438D01*
X147655446Y-65719438D02*
X147750684Y-65671819D01*
D11*
X120866552Y-61606326D02*
X121723695Y-61606326D01*
X121723695Y-61606326D02*
X121818933Y-61653945D01*
X121818933Y-61653945D02*
X121866552Y-61749183D01*
X121866552Y-61749183D02*
X121866552Y-61796802D01*
X120533219Y-61606326D02*
X120580838Y-61653945D01*
X120580838Y-61653945D02*
X120628457Y-61606326D01*
X120628457Y-61606326D02*
X120580838Y-61558707D01*
X120580838Y-61558707D02*
X120533219Y-61606326D01*
X120533219Y-61606326D02*
X120628457Y-61606326D01*
X121533219Y-60987279D02*
X121485600Y-61082517D01*
X121485600Y-61082517D02*
X121390361Y-61130136D01*
X121390361Y-61130136D02*
X120533219Y-61130136D01*
X121485600Y-60177755D02*
X121533219Y-60272993D01*
X121533219Y-60272993D02*
X121533219Y-60463469D01*
X121533219Y-60463469D02*
X121485600Y-60558707D01*
X121485600Y-60558707D02*
X121437980Y-60606326D01*
X121437980Y-60606326D02*
X121342742Y-60653945D01*
X121342742Y-60653945D02*
X121057028Y-60653945D01*
X121057028Y-60653945D02*
X120961790Y-60606326D01*
X120961790Y-60606326D02*
X120914171Y-60558707D01*
X120914171Y-60558707D02*
X120866552Y-60463469D01*
X120866552Y-60463469D02*
X120866552Y-60272993D01*
X120866552Y-60272993D02*
X120914171Y-60177755D01*
X120866552Y-59749183D02*
X121723695Y-59749183D01*
X121723695Y-59749183D02*
X121818933Y-59796802D01*
X121818933Y-59796802D02*
X121866552Y-59892040D01*
X121866552Y-59892040D02*
X121866552Y-59939659D01*
X120533219Y-59749183D02*
X120580838Y-59796802D01*
X120580838Y-59796802D02*
X120628457Y-59749183D01*
X120628457Y-59749183D02*
X120580838Y-59701564D01*
X120580838Y-59701564D02*
X120533219Y-59749183D01*
X120533219Y-59749183D02*
X120628457Y-59749183D01*
X121533219Y-59130136D02*
X121485600Y-59225374D01*
X121485600Y-59225374D02*
X121390361Y-59272993D01*
X121390361Y-59272993D02*
X120533219Y-59272993D01*
X121485600Y-58320612D02*
X121533219Y-58415850D01*
X121533219Y-58415850D02*
X121533219Y-58606326D01*
X121533219Y-58606326D02*
X121485600Y-58701564D01*
X121485600Y-58701564D02*
X121437980Y-58749183D01*
X121437980Y-58749183D02*
X121342742Y-58796802D01*
X121342742Y-58796802D02*
X121057028Y-58796802D01*
X121057028Y-58796802D02*
X120961790Y-58749183D01*
X120961790Y-58749183D02*
X120914171Y-58701564D01*
X120914171Y-58701564D02*
X120866552Y-58606326D01*
X120866552Y-58606326D02*
X120866552Y-58415850D01*
X120866552Y-58415850D02*
X120914171Y-58320612D01*
X120866552Y-57892040D02*
X121723695Y-57892040D01*
X121723695Y-57892040D02*
X121818933Y-57939659D01*
X121818933Y-57939659D02*
X121866552Y-58034897D01*
X121866552Y-58034897D02*
X121866552Y-58082516D01*
X120533219Y-57892040D02*
X120580838Y-57939659D01*
X120580838Y-57939659D02*
X120628457Y-57892040D01*
X120628457Y-57892040D02*
X120580838Y-57844421D01*
X120580838Y-57844421D02*
X120533219Y-57892040D01*
X120533219Y-57892040D02*
X120628457Y-57892040D01*
X121533219Y-57272993D02*
X121485600Y-57368231D01*
X121485600Y-57368231D02*
X121390361Y-57415850D01*
X121390361Y-57415850D02*
X120533219Y-57415850D01*
X121485600Y-56463469D02*
X121533219Y-56558707D01*
X121533219Y-56558707D02*
X121533219Y-56749183D01*
X121533219Y-56749183D02*
X121485600Y-56844421D01*
X121485600Y-56844421D02*
X121437980Y-56892040D01*
X121437980Y-56892040D02*
X121342742Y-56939659D01*
X121342742Y-56939659D02*
X121057028Y-56939659D01*
X121057028Y-56939659D02*
X120961790Y-56892040D01*
X120961790Y-56892040D02*
X120914171Y-56844421D01*
X120914171Y-56844421D02*
X120866552Y-56749183D01*
X120866552Y-56749183D02*
X120866552Y-56558707D01*
X120866552Y-56558707D02*
X120914171Y-56463469D01*
X120866552Y-56034897D02*
X121723695Y-56034897D01*
X121723695Y-56034897D02*
X121818933Y-56082516D01*
X121818933Y-56082516D02*
X121866552Y-56177754D01*
X121866552Y-56177754D02*
X121866552Y-56225373D01*
X120533219Y-56034897D02*
X120580838Y-56082516D01*
X120580838Y-56082516D02*
X120628457Y-56034897D01*
X120628457Y-56034897D02*
X120580838Y-55987278D01*
X120580838Y-55987278D02*
X120533219Y-56034897D01*
X120533219Y-56034897D02*
X120628457Y-56034897D01*
X121533219Y-55415850D02*
X121485600Y-55511088D01*
X121485600Y-55511088D02*
X121390361Y-55558707D01*
X121390361Y-55558707D02*
X120533219Y-55558707D01*
X121485600Y-54606326D02*
X121533219Y-54701564D01*
X121533219Y-54701564D02*
X121533219Y-54892040D01*
X121533219Y-54892040D02*
X121485600Y-54987278D01*
X121485600Y-54987278D02*
X121437980Y-55034897D01*
X121437980Y-55034897D02*
X121342742Y-55082516D01*
X121342742Y-55082516D02*
X121057028Y-55082516D01*
X121057028Y-55082516D02*
X120961790Y-55034897D01*
X120961790Y-55034897D02*
X120914171Y-54987278D01*
X120914171Y-54987278D02*
X120866552Y-54892040D01*
X120866552Y-54892040D02*
X120866552Y-54701564D01*
X120866552Y-54701564D02*
X120914171Y-54606326D01*
D10*
X159102588Y-58353438D02*
X159007350Y-58305819D01*
X159007350Y-58305819D02*
X158864493Y-58305819D01*
X158864493Y-58305819D02*
X158721636Y-58353438D01*
X158721636Y-58353438D02*
X158626398Y-58448676D01*
X158626398Y-58448676D02*
X158578779Y-58543914D01*
X158578779Y-58543914D02*
X158531160Y-58734390D01*
X158531160Y-58734390D02*
X158531160Y-58877247D01*
X158531160Y-58877247D02*
X158578779Y-59067723D01*
X158578779Y-59067723D02*
X158626398Y-59162961D01*
X158626398Y-59162961D02*
X158721636Y-59258200D01*
X158721636Y-59258200D02*
X158864493Y-59305819D01*
X158864493Y-59305819D02*
X158959731Y-59305819D01*
X158959731Y-59305819D02*
X159102588Y-59258200D01*
X159102588Y-59258200D02*
X159150207Y-59210580D01*
X159150207Y-59210580D02*
X159150207Y-58877247D01*
X159150207Y-58877247D02*
X158959731Y-58877247D01*
X159578779Y-59305819D02*
X159578779Y-58305819D01*
X159578779Y-58305819D02*
X160150207Y-59305819D01*
X160150207Y-59305819D02*
X160150207Y-58305819D01*
X160626398Y-59305819D02*
X160626398Y-58305819D01*
X160626398Y-58305819D02*
X160864493Y-58305819D01*
X160864493Y-58305819D02*
X161007350Y-58353438D01*
X161007350Y-58353438D02*
X161102588Y-58448676D01*
X161102588Y-58448676D02*
X161150207Y-58543914D01*
X161150207Y-58543914D02*
X161197826Y-58734390D01*
X161197826Y-58734390D02*
X161197826Y-58877247D01*
X161197826Y-58877247D02*
X161150207Y-59067723D01*
X161150207Y-59067723D02*
X161102588Y-59162961D01*
X161102588Y-59162961D02*
X161007350Y-59258200D01*
X161007350Y-59258200D02*
X160864493Y-59305819D01*
X160864493Y-59305819D02*
X160626398Y-59305819D01*
X162721636Y-58782009D02*
X162864493Y-58829628D01*
X162864493Y-58829628D02*
X162912112Y-58877247D01*
X162912112Y-58877247D02*
X162959731Y-58972485D01*
X162959731Y-58972485D02*
X162959731Y-59115342D01*
X162959731Y-59115342D02*
X162912112Y-59210580D01*
X162912112Y-59210580D02*
X162864493Y-59258200D01*
X162864493Y-59258200D02*
X162769255Y-59305819D01*
X162769255Y-59305819D02*
X162388303Y-59305819D01*
X162388303Y-59305819D02*
X162388303Y-58305819D01*
X162388303Y-58305819D02*
X162721636Y-58305819D01*
X162721636Y-58305819D02*
X162816874Y-58353438D01*
X162816874Y-58353438D02*
X162864493Y-58401057D01*
X162864493Y-58401057D02*
X162912112Y-58496295D01*
X162912112Y-58496295D02*
X162912112Y-58591533D01*
X162912112Y-58591533D02*
X162864493Y-58686771D01*
X162864493Y-58686771D02*
X162816874Y-58734390D01*
X162816874Y-58734390D02*
X162721636Y-58782009D01*
X162721636Y-58782009D02*
X162388303Y-58782009D01*
X163816874Y-59305819D02*
X163816874Y-58782009D01*
X163816874Y-58782009D02*
X163769255Y-58686771D01*
X163769255Y-58686771D02*
X163674017Y-58639152D01*
X163674017Y-58639152D02*
X163483541Y-58639152D01*
X163483541Y-58639152D02*
X163388303Y-58686771D01*
X163816874Y-59258200D02*
X163721636Y-59305819D01*
X163721636Y-59305819D02*
X163483541Y-59305819D01*
X163483541Y-59305819D02*
X163388303Y-59258200D01*
X163388303Y-59258200D02*
X163340684Y-59162961D01*
X163340684Y-59162961D02*
X163340684Y-59067723D01*
X163340684Y-59067723D02*
X163388303Y-58972485D01*
X163388303Y-58972485D02*
X163483541Y-58924866D01*
X163483541Y-58924866D02*
X163721636Y-58924866D01*
X163721636Y-58924866D02*
X163816874Y-58877247D01*
X164245446Y-59258200D02*
X164340684Y-59305819D01*
X164340684Y-59305819D02*
X164531160Y-59305819D01*
X164531160Y-59305819D02*
X164626398Y-59258200D01*
X164626398Y-59258200D02*
X164674017Y-59162961D01*
X164674017Y-59162961D02*
X164674017Y-59115342D01*
X164674017Y-59115342D02*
X164626398Y-59020104D01*
X164626398Y-59020104D02*
X164531160Y-58972485D01*
X164531160Y-58972485D02*
X164388303Y-58972485D01*
X164388303Y-58972485D02*
X164293065Y-58924866D01*
X164293065Y-58924866D02*
X164245446Y-58829628D01*
X164245446Y-58829628D02*
X164245446Y-58782009D01*
X164245446Y-58782009D02*
X164293065Y-58686771D01*
X164293065Y-58686771D02*
X164388303Y-58639152D01*
X164388303Y-58639152D02*
X164531160Y-58639152D01*
X164531160Y-58639152D02*
X164626398Y-58686771D01*
X165483541Y-59258200D02*
X165388303Y-59305819D01*
X165388303Y-59305819D02*
X165197827Y-59305819D01*
X165197827Y-59305819D02*
X165102589Y-59258200D01*
X165102589Y-59258200D02*
X165054970Y-59162961D01*
X165054970Y-59162961D02*
X165054970Y-58782009D01*
X165054970Y-58782009D02*
X165102589Y-58686771D01*
X165102589Y-58686771D02*
X165197827Y-58639152D01*
X165197827Y-58639152D02*
X165388303Y-58639152D01*
X165388303Y-58639152D02*
X165483541Y-58686771D01*
X165483541Y-58686771D02*
X165531160Y-58782009D01*
X165531160Y-58782009D02*
X165531160Y-58877247D01*
X165531160Y-58877247D02*
X165054970Y-58972485D01*
X165912113Y-59258200D02*
X166007351Y-59305819D01*
X166007351Y-59305819D02*
X166197827Y-59305819D01*
X166197827Y-59305819D02*
X166293065Y-59258200D01*
X166293065Y-59258200D02*
X166340684Y-59162961D01*
X166340684Y-59162961D02*
X166340684Y-59115342D01*
X166340684Y-59115342D02*
X166293065Y-59020104D01*
X166293065Y-59020104D02*
X166197827Y-58972485D01*
X166197827Y-58972485D02*
X166054970Y-58972485D01*
X166054970Y-58972485D02*
X165959732Y-58924866D01*
X165959732Y-58924866D02*
X165912113Y-58829628D01*
X165912113Y-58829628D02*
X165912113Y-58782009D01*
X165912113Y-58782009D02*
X165959732Y-58686771D01*
X165959732Y-58686771D02*
X166054970Y-58639152D01*
X166054970Y-58639152D02*
X166197827Y-58639152D01*
X166197827Y-58639152D02*
X166293065Y-58686771D01*
X166626399Y-58639152D02*
X167007351Y-58639152D01*
X166769256Y-58305819D02*
X166769256Y-59162961D01*
X166769256Y-59162961D02*
X166816875Y-59258200D01*
X166816875Y-59258200D02*
X166912113Y-59305819D01*
X166912113Y-59305819D02*
X167007351Y-59305819D01*
X167769256Y-59305819D02*
X167769256Y-58782009D01*
X167769256Y-58782009D02*
X167721637Y-58686771D01*
X167721637Y-58686771D02*
X167626399Y-58639152D01*
X167626399Y-58639152D02*
X167435923Y-58639152D01*
X167435923Y-58639152D02*
X167340685Y-58686771D01*
X167769256Y-59258200D02*
X167674018Y-59305819D01*
X167674018Y-59305819D02*
X167435923Y-59305819D01*
X167435923Y-59305819D02*
X167340685Y-59258200D01*
X167340685Y-59258200D02*
X167293066Y-59162961D01*
X167293066Y-59162961D02*
X167293066Y-59067723D01*
X167293066Y-59067723D02*
X167340685Y-58972485D01*
X167340685Y-58972485D02*
X167435923Y-58924866D01*
X167435923Y-58924866D02*
X167674018Y-58924866D01*
X167674018Y-58924866D02*
X167769256Y-58877247D01*
X168102590Y-58639152D02*
X168483542Y-58639152D01*
X168245447Y-58305819D02*
X168245447Y-59162961D01*
X168245447Y-59162961D02*
X168293066Y-59258200D01*
X168293066Y-59258200D02*
X168388304Y-59305819D01*
X168388304Y-59305819D02*
X168483542Y-59305819D01*
X168816876Y-59305819D02*
X168816876Y-58639152D01*
X168816876Y-58305819D02*
X168769257Y-58353438D01*
X168769257Y-58353438D02*
X168816876Y-58401057D01*
X168816876Y-58401057D02*
X168864495Y-58353438D01*
X168864495Y-58353438D02*
X168816876Y-58305819D01*
X168816876Y-58305819D02*
X168816876Y-58401057D01*
X169435923Y-59305819D02*
X169340685Y-59258200D01*
X169340685Y-59258200D02*
X169293066Y-59210580D01*
X169293066Y-59210580D02*
X169245447Y-59115342D01*
X169245447Y-59115342D02*
X169245447Y-58829628D01*
X169245447Y-58829628D02*
X169293066Y-58734390D01*
X169293066Y-58734390D02*
X169340685Y-58686771D01*
X169340685Y-58686771D02*
X169435923Y-58639152D01*
X169435923Y-58639152D02*
X169578780Y-58639152D01*
X169578780Y-58639152D02*
X169674018Y-58686771D01*
X169674018Y-58686771D02*
X169721637Y-58734390D01*
X169721637Y-58734390D02*
X169769256Y-58829628D01*
X169769256Y-58829628D02*
X169769256Y-59115342D01*
X169769256Y-59115342D02*
X169721637Y-59210580D01*
X169721637Y-59210580D02*
X169674018Y-59258200D01*
X169674018Y-59258200D02*
X169578780Y-59305819D01*
X169578780Y-59305819D02*
X169435923Y-59305819D01*
X170197828Y-58639152D02*
X170197828Y-59305819D01*
X170197828Y-58734390D02*
X170245447Y-58686771D01*
X170245447Y-58686771D02*
X170340685Y-58639152D01*
X170340685Y-58639152D02*
X170483542Y-58639152D01*
X170483542Y-58639152D02*
X170578780Y-58686771D01*
X170578780Y-58686771D02*
X170626399Y-58782009D01*
X170626399Y-58782009D02*
X170626399Y-59305819D01*
X166214588Y-65973438D02*
X166119350Y-65925819D01*
X166119350Y-65925819D02*
X165976493Y-65925819D01*
X165976493Y-65925819D02*
X165833636Y-65973438D01*
X165833636Y-65973438D02*
X165738398Y-66068676D01*
X165738398Y-66068676D02*
X165690779Y-66163914D01*
X165690779Y-66163914D02*
X165643160Y-66354390D01*
X165643160Y-66354390D02*
X165643160Y-66497247D01*
X165643160Y-66497247D02*
X165690779Y-66687723D01*
X165690779Y-66687723D02*
X165738398Y-66782961D01*
X165738398Y-66782961D02*
X165833636Y-66878200D01*
X165833636Y-66878200D02*
X165976493Y-66925819D01*
X165976493Y-66925819D02*
X166071731Y-66925819D01*
X166071731Y-66925819D02*
X166214588Y-66878200D01*
X166214588Y-66878200D02*
X166262207Y-66830580D01*
X166262207Y-66830580D02*
X166262207Y-66497247D01*
X166262207Y-66497247D02*
X166071731Y-66497247D01*
X166690779Y-66925819D02*
X166690779Y-65925819D01*
X166690779Y-65925819D02*
X167262207Y-66925819D01*
X167262207Y-66925819D02*
X167262207Y-65925819D01*
X167738398Y-66925819D02*
X167738398Y-65925819D01*
X167738398Y-65925819D02*
X167976493Y-65925819D01*
X167976493Y-65925819D02*
X168119350Y-65973438D01*
X168119350Y-65973438D02*
X168214588Y-66068676D01*
X168214588Y-66068676D02*
X168262207Y-66163914D01*
X168262207Y-66163914D02*
X168309826Y-66354390D01*
X168309826Y-66354390D02*
X168309826Y-66497247D01*
X168309826Y-66497247D02*
X168262207Y-66687723D01*
X168262207Y-66687723D02*
X168214588Y-66782961D01*
X168214588Y-66782961D02*
X168119350Y-66878200D01*
X168119350Y-66878200D02*
X167976493Y-66925819D01*
X167976493Y-66925819D02*
X167738398Y-66925819D01*
X157896112Y-45234065D02*
X158038969Y-45281684D01*
X158038969Y-45281684D02*
X158086588Y-45329303D01*
X158086588Y-45329303D02*
X158134207Y-45424541D01*
X158134207Y-45424541D02*
X158134207Y-45567398D01*
X158134207Y-45567398D02*
X158086588Y-45662636D01*
X158086588Y-45662636D02*
X158038969Y-45710256D01*
X158038969Y-45710256D02*
X157943731Y-45757875D01*
X157943731Y-45757875D02*
X157562779Y-45757875D01*
X157562779Y-45757875D02*
X157562779Y-44757875D01*
X157562779Y-44757875D02*
X157896112Y-44757875D01*
X157896112Y-44757875D02*
X157991350Y-44805494D01*
X157991350Y-44805494D02*
X158038969Y-44853113D01*
X158038969Y-44853113D02*
X158086588Y-44948351D01*
X158086588Y-44948351D02*
X158086588Y-45043589D01*
X158086588Y-45043589D02*
X158038969Y-45138827D01*
X158038969Y-45138827D02*
X157991350Y-45186446D01*
X157991350Y-45186446D02*
X157896112Y-45234065D01*
X157896112Y-45234065D02*
X157562779Y-45234065D01*
X159038969Y-45757875D02*
X158562779Y-45757875D01*
X158562779Y-45757875D02*
X158562779Y-44757875D01*
X159372303Y-44757875D02*
X159372303Y-45567398D01*
X159372303Y-45567398D02*
X159419922Y-45662636D01*
X159419922Y-45662636D02*
X159467541Y-45710256D01*
X159467541Y-45710256D02*
X159562779Y-45757875D01*
X159562779Y-45757875D02*
X159753255Y-45757875D01*
X159753255Y-45757875D02*
X159848493Y-45710256D01*
X159848493Y-45710256D02*
X159896112Y-45662636D01*
X159896112Y-45662636D02*
X159943731Y-45567398D01*
X159943731Y-45567398D02*
X159943731Y-44757875D01*
X160419922Y-45757875D02*
X160419922Y-44757875D01*
X160419922Y-44757875D02*
X160991350Y-45757875D01*
X160991350Y-45757875D02*
X160991350Y-44757875D01*
X161324684Y-44757875D02*
X161896112Y-44757875D01*
X161610398Y-45757875D02*
X161610398Y-44757875D01*
X158134207Y-47367819D02*
X157800874Y-46891628D01*
X157562779Y-47367819D02*
X157562779Y-46367819D01*
X157562779Y-46367819D02*
X157943731Y-46367819D01*
X157943731Y-46367819D02*
X158038969Y-46415438D01*
X158038969Y-46415438D02*
X158086588Y-46463057D01*
X158086588Y-46463057D02*
X158134207Y-46558295D01*
X158134207Y-46558295D02*
X158134207Y-46701152D01*
X158134207Y-46701152D02*
X158086588Y-46796390D01*
X158086588Y-46796390D02*
X158038969Y-46844009D01*
X158038969Y-46844009D02*
X157943731Y-46891628D01*
X157943731Y-46891628D02*
X157562779Y-46891628D01*
X158562779Y-46844009D02*
X158896112Y-46844009D01*
X159038969Y-47367819D02*
X158562779Y-47367819D01*
X158562779Y-47367819D02*
X158562779Y-46367819D01*
X158562779Y-46367819D02*
X159038969Y-46367819D01*
X159419922Y-47320200D02*
X159562779Y-47367819D01*
X159562779Y-47367819D02*
X159800874Y-47367819D01*
X159800874Y-47367819D02*
X159896112Y-47320200D01*
X159896112Y-47320200D02*
X159943731Y-47272580D01*
X159943731Y-47272580D02*
X159991350Y-47177342D01*
X159991350Y-47177342D02*
X159991350Y-47082104D01*
X159991350Y-47082104D02*
X159943731Y-46986866D01*
X159943731Y-46986866D02*
X159896112Y-46939247D01*
X159896112Y-46939247D02*
X159800874Y-46891628D01*
X159800874Y-46891628D02*
X159610398Y-46844009D01*
X159610398Y-46844009D02*
X159515160Y-46796390D01*
X159515160Y-46796390D02*
X159467541Y-46748771D01*
X159467541Y-46748771D02*
X159419922Y-46653533D01*
X159419922Y-46653533D02*
X159419922Y-46558295D01*
X159419922Y-46558295D02*
X159467541Y-46463057D01*
X159467541Y-46463057D02*
X159515160Y-46415438D01*
X159515160Y-46415438D02*
X159610398Y-46367819D01*
X159610398Y-46367819D02*
X159848493Y-46367819D01*
X159848493Y-46367819D02*
X159991350Y-46415438D01*
X160419922Y-47367819D02*
X160419922Y-46367819D01*
X160848493Y-47320200D02*
X160991350Y-47367819D01*
X160991350Y-47367819D02*
X161229445Y-47367819D01*
X161229445Y-47367819D02*
X161324683Y-47320200D01*
X161324683Y-47320200D02*
X161372302Y-47272580D01*
X161372302Y-47272580D02*
X161419921Y-47177342D01*
X161419921Y-47177342D02*
X161419921Y-47082104D01*
X161419921Y-47082104D02*
X161372302Y-46986866D01*
X161372302Y-46986866D02*
X161324683Y-46939247D01*
X161324683Y-46939247D02*
X161229445Y-46891628D01*
X161229445Y-46891628D02*
X161038969Y-46844009D01*
X161038969Y-46844009D02*
X160943731Y-46796390D01*
X160943731Y-46796390D02*
X160896112Y-46748771D01*
X160896112Y-46748771D02*
X160848493Y-46653533D01*
X160848493Y-46653533D02*
X160848493Y-46558295D01*
X160848493Y-46558295D02*
X160896112Y-46463057D01*
X160896112Y-46463057D02*
X160943731Y-46415438D01*
X160943731Y-46415438D02*
X161038969Y-46367819D01*
X161038969Y-46367819D02*
X161277064Y-46367819D01*
X161277064Y-46367819D02*
X161419921Y-46415438D01*
X161705636Y-46367819D02*
X162277064Y-46367819D01*
X161991350Y-47367819D02*
X161991350Y-46367819D01*
X162800874Y-46367819D02*
X162991350Y-46367819D01*
X162991350Y-46367819D02*
X163086588Y-46415438D01*
X163086588Y-46415438D02*
X163181826Y-46510676D01*
X163181826Y-46510676D02*
X163229445Y-46701152D01*
X163229445Y-46701152D02*
X163229445Y-47034485D01*
X163229445Y-47034485D02*
X163181826Y-47224961D01*
X163181826Y-47224961D02*
X163086588Y-47320200D01*
X163086588Y-47320200D02*
X162991350Y-47367819D01*
X162991350Y-47367819D02*
X162800874Y-47367819D01*
X162800874Y-47367819D02*
X162705636Y-47320200D01*
X162705636Y-47320200D02*
X162610398Y-47224961D01*
X162610398Y-47224961D02*
X162562779Y-47034485D01*
X162562779Y-47034485D02*
X162562779Y-46701152D01*
X162562779Y-46701152D02*
X162610398Y-46510676D01*
X162610398Y-46510676D02*
X162705636Y-46415438D01*
X162705636Y-46415438D02*
X162800874Y-46367819D01*
X164229445Y-47367819D02*
X163896112Y-46891628D01*
X163658017Y-47367819D02*
X163658017Y-46367819D01*
X163658017Y-46367819D02*
X164038969Y-46367819D01*
X164038969Y-46367819D02*
X164134207Y-46415438D01*
X164134207Y-46415438D02*
X164181826Y-46463057D01*
X164181826Y-46463057D02*
X164229445Y-46558295D01*
X164229445Y-46558295D02*
X164229445Y-46701152D01*
X164229445Y-46701152D02*
X164181826Y-46796390D01*
X164181826Y-46796390D02*
X164134207Y-46844009D01*
X164134207Y-46844009D02*
X164038969Y-46891628D01*
X164038969Y-46891628D02*
X163658017Y-46891628D01*
D11*
X123305673Y-58455275D02*
X123305673Y-57455275D01*
X123734244Y-58455275D02*
X123734244Y-57931465D01*
X123734244Y-57931465D02*
X123686625Y-57836227D01*
X123686625Y-57836227D02*
X123591387Y-57788608D01*
X123591387Y-57788608D02*
X123448530Y-57788608D01*
X123448530Y-57788608D02*
X123353292Y-57836227D01*
X123353292Y-57836227D02*
X123305673Y-57883846D01*
X124591387Y-58407656D02*
X124496149Y-58455275D01*
X124496149Y-58455275D02*
X124305673Y-58455275D01*
X124305673Y-58455275D02*
X124210435Y-58407656D01*
X124210435Y-58407656D02*
X124162816Y-58312417D01*
X124162816Y-58312417D02*
X124162816Y-57931465D01*
X124162816Y-57931465D02*
X124210435Y-57836227D01*
X124210435Y-57836227D02*
X124305673Y-57788608D01*
X124305673Y-57788608D02*
X124496149Y-57788608D01*
X124496149Y-57788608D02*
X124591387Y-57836227D01*
X124591387Y-57836227D02*
X124639006Y-57931465D01*
X124639006Y-57931465D02*
X124639006Y-58026703D01*
X124639006Y-58026703D02*
X124162816Y-58121941D01*
X125067578Y-58455275D02*
X125067578Y-57788608D01*
X125067578Y-57979084D02*
X125115197Y-57883846D01*
X125115197Y-57883846D02*
X125162816Y-57836227D01*
X125162816Y-57836227D02*
X125258054Y-57788608D01*
X125258054Y-57788608D02*
X125353292Y-57788608D01*
X126067578Y-58407656D02*
X125972340Y-58455275D01*
X125972340Y-58455275D02*
X125781864Y-58455275D01*
X125781864Y-58455275D02*
X125686626Y-58407656D01*
X125686626Y-58407656D02*
X125639007Y-58312417D01*
X125639007Y-58312417D02*
X125639007Y-57931465D01*
X125639007Y-57931465D02*
X125686626Y-57836227D01*
X125686626Y-57836227D02*
X125781864Y-57788608D01*
X125781864Y-57788608D02*
X125972340Y-57788608D01*
X125972340Y-57788608D02*
X126067578Y-57836227D01*
X126067578Y-57836227D02*
X126115197Y-57931465D01*
X126115197Y-57931465D02*
X126115197Y-58026703D01*
X126115197Y-58026703D02*
X125639007Y-58121941D01*
X127305674Y-58455275D02*
X127305674Y-57455275D01*
X127305674Y-57836227D02*
X127400912Y-57788608D01*
X127400912Y-57788608D02*
X127591388Y-57788608D01*
X127591388Y-57788608D02*
X127686626Y-57836227D01*
X127686626Y-57836227D02*
X127734245Y-57883846D01*
X127734245Y-57883846D02*
X127781864Y-57979084D01*
X127781864Y-57979084D02*
X127781864Y-58264798D01*
X127781864Y-58264798D02*
X127734245Y-58360036D01*
X127734245Y-58360036D02*
X127686626Y-58407656D01*
X127686626Y-58407656D02*
X127591388Y-58455275D01*
X127591388Y-58455275D02*
X127400912Y-58455275D01*
X127400912Y-58455275D02*
X127305674Y-58407656D01*
X128591388Y-58407656D02*
X128496150Y-58455275D01*
X128496150Y-58455275D02*
X128305674Y-58455275D01*
X128305674Y-58455275D02*
X128210436Y-58407656D01*
X128210436Y-58407656D02*
X128162817Y-58312417D01*
X128162817Y-58312417D02*
X128162817Y-57931465D01*
X128162817Y-57931465D02*
X128210436Y-57836227D01*
X128210436Y-57836227D02*
X128305674Y-57788608D01*
X128305674Y-57788608D02*
X128496150Y-57788608D01*
X128496150Y-57788608D02*
X128591388Y-57836227D01*
X128591388Y-57836227D02*
X128639007Y-57931465D01*
X128639007Y-57931465D02*
X128639007Y-58026703D01*
X128639007Y-58026703D02*
X128162817Y-58121941D01*
X123734244Y-60065219D02*
X123734244Y-59065219D01*
X123734244Y-60017600D02*
X123639006Y-60065219D01*
X123639006Y-60065219D02*
X123448530Y-60065219D01*
X123448530Y-60065219D02*
X123353292Y-60017600D01*
X123353292Y-60017600D02*
X123305673Y-59969980D01*
X123305673Y-59969980D02*
X123258054Y-59874742D01*
X123258054Y-59874742D02*
X123258054Y-59589028D01*
X123258054Y-59589028D02*
X123305673Y-59493790D01*
X123305673Y-59493790D02*
X123353292Y-59446171D01*
X123353292Y-59446171D02*
X123448530Y-59398552D01*
X123448530Y-59398552D02*
X123639006Y-59398552D01*
X123639006Y-59398552D02*
X123734244Y-59446171D01*
X124210435Y-60065219D02*
X124210435Y-59398552D01*
X124210435Y-59589028D02*
X124258054Y-59493790D01*
X124258054Y-59493790D02*
X124305673Y-59446171D01*
X124305673Y-59446171D02*
X124400911Y-59398552D01*
X124400911Y-59398552D02*
X124496149Y-59398552D01*
X125258054Y-60065219D02*
X125258054Y-59541409D01*
X125258054Y-59541409D02*
X125210435Y-59446171D01*
X125210435Y-59446171D02*
X125115197Y-59398552D01*
X125115197Y-59398552D02*
X124924721Y-59398552D01*
X124924721Y-59398552D02*
X124829483Y-59446171D01*
X125258054Y-60017600D02*
X125162816Y-60065219D01*
X125162816Y-60065219D02*
X124924721Y-60065219D01*
X124924721Y-60065219D02*
X124829483Y-60017600D01*
X124829483Y-60017600D02*
X124781864Y-59922361D01*
X124781864Y-59922361D02*
X124781864Y-59827123D01*
X124781864Y-59827123D02*
X124829483Y-59731885D01*
X124829483Y-59731885D02*
X124924721Y-59684266D01*
X124924721Y-59684266D02*
X125162816Y-59684266D01*
X125162816Y-59684266D02*
X125258054Y-59636647D01*
X126162816Y-59398552D02*
X126162816Y-60208076D01*
X126162816Y-60208076D02*
X126115197Y-60303314D01*
X126115197Y-60303314D02*
X126067578Y-60350933D01*
X126067578Y-60350933D02*
X125972340Y-60398552D01*
X125972340Y-60398552D02*
X125829483Y-60398552D01*
X125829483Y-60398552D02*
X125734245Y-60350933D01*
X126162816Y-60017600D02*
X126067578Y-60065219D01*
X126067578Y-60065219D02*
X125877102Y-60065219D01*
X125877102Y-60065219D02*
X125781864Y-60017600D01*
X125781864Y-60017600D02*
X125734245Y-59969980D01*
X125734245Y-59969980D02*
X125686626Y-59874742D01*
X125686626Y-59874742D02*
X125686626Y-59589028D01*
X125686626Y-59589028D02*
X125734245Y-59493790D01*
X125734245Y-59493790D02*
X125781864Y-59446171D01*
X125781864Y-59446171D02*
X125877102Y-59398552D01*
X125877102Y-59398552D02*
X126067578Y-59398552D01*
X126067578Y-59398552D02*
X126162816Y-59446171D01*
X126781864Y-60065219D02*
X126686626Y-60017600D01*
X126686626Y-60017600D02*
X126639007Y-59969980D01*
X126639007Y-59969980D02*
X126591388Y-59874742D01*
X126591388Y-59874742D02*
X126591388Y-59589028D01*
X126591388Y-59589028D02*
X126639007Y-59493790D01*
X126639007Y-59493790D02*
X126686626Y-59446171D01*
X126686626Y-59446171D02*
X126781864Y-59398552D01*
X126781864Y-59398552D02*
X126924721Y-59398552D01*
X126924721Y-59398552D02*
X127019959Y-59446171D01*
X127019959Y-59446171D02*
X127067578Y-59493790D01*
X127067578Y-59493790D02*
X127115197Y-59589028D01*
X127115197Y-59589028D02*
X127115197Y-59874742D01*
X127115197Y-59874742D02*
X127067578Y-59969980D01*
X127067578Y-59969980D02*
X127019959Y-60017600D01*
X127019959Y-60017600D02*
X126924721Y-60065219D01*
X126924721Y-60065219D02*
X126781864Y-60065219D01*
X127543769Y-59398552D02*
X127543769Y-60065219D01*
X127543769Y-59493790D02*
X127591388Y-59446171D01*
X127591388Y-59446171D02*
X127686626Y-59398552D01*
X127686626Y-59398552D02*
X127829483Y-59398552D01*
X127829483Y-59398552D02*
X127924721Y-59446171D01*
X127924721Y-59446171D02*
X127972340Y-59541409D01*
X127972340Y-59541409D02*
X127972340Y-60065219D01*
X128400912Y-60017600D02*
X128496150Y-60065219D01*
X128496150Y-60065219D02*
X128686626Y-60065219D01*
X128686626Y-60065219D02*
X128781864Y-60017600D01*
X128781864Y-60017600D02*
X128829483Y-59922361D01*
X128829483Y-59922361D02*
X128829483Y-59874742D01*
X128829483Y-59874742D02*
X128781864Y-59779504D01*
X128781864Y-59779504D02*
X128686626Y-59731885D01*
X128686626Y-59731885D02*
X128543769Y-59731885D01*
X128543769Y-59731885D02*
X128448531Y-59684266D01*
X128448531Y-59684266D02*
X128400912Y-59589028D01*
X128400912Y-59589028D02*
X128400912Y-59541409D01*
X128400912Y-59541409D02*
X128448531Y-59446171D01*
X128448531Y-59446171D02*
X128543769Y-59398552D01*
X128543769Y-59398552D02*
X128686626Y-59398552D01*
X128686626Y-59398552D02*
X128781864Y-59446171D01*
D10*
X160102779Y-55241819D02*
X160102779Y-54241819D01*
X160102779Y-54241819D02*
X160674207Y-55241819D01*
X160674207Y-55241819D02*
X160674207Y-54241819D01*
X161721826Y-55146580D02*
X161674207Y-55194200D01*
X161674207Y-55194200D02*
X161531350Y-55241819D01*
X161531350Y-55241819D02*
X161436112Y-55241819D01*
X161436112Y-55241819D02*
X161293255Y-55194200D01*
X161293255Y-55194200D02*
X161198017Y-55098961D01*
X161198017Y-55098961D02*
X161150398Y-55003723D01*
X161150398Y-55003723D02*
X161102779Y-54813247D01*
X161102779Y-54813247D02*
X161102779Y-54670390D01*
X161102779Y-54670390D02*
X161150398Y-54479914D01*
X161150398Y-54479914D02*
X161198017Y-54384676D01*
X161198017Y-54384676D02*
X161293255Y-54289438D01*
X161293255Y-54289438D02*
X161436112Y-54241819D01*
X161436112Y-54241819D02*
X161531350Y-54241819D01*
X161531350Y-54241819D02*
X161674207Y-54289438D01*
X161674207Y-54289438D02*
X161721826Y-54337057D01*
X160578969Y-62369819D02*
X160102779Y-62369819D01*
X160102779Y-62369819D02*
X160055160Y-62846009D01*
X160055160Y-62846009D02*
X160102779Y-62798390D01*
X160102779Y-62798390D02*
X160198017Y-62750771D01*
X160198017Y-62750771D02*
X160436112Y-62750771D01*
X160436112Y-62750771D02*
X160531350Y-62798390D01*
X160531350Y-62798390D02*
X160578969Y-62846009D01*
X160578969Y-62846009D02*
X160626588Y-62941247D01*
X160626588Y-62941247D02*
X160626588Y-63179342D01*
X160626588Y-63179342D02*
X160578969Y-63274580D01*
X160578969Y-63274580D02*
X160531350Y-63322200D01*
X160531350Y-63322200D02*
X160436112Y-63369819D01*
X160436112Y-63369819D02*
X160198017Y-63369819D01*
X160198017Y-63369819D02*
X160102779Y-63322200D01*
X160102779Y-63322200D02*
X160055160Y-63274580D01*
X160912303Y-62369819D02*
X161245636Y-63369819D01*
X161245636Y-63369819D02*
X161578969Y-62369819D01*
X162674208Y-63369819D02*
X162674208Y-62369819D01*
X163150398Y-63369819D02*
X163150398Y-62369819D01*
X163150398Y-62369819D02*
X163721826Y-63369819D01*
X163721826Y-63369819D02*
X163721826Y-62369819D01*
X165547922Y-51019152D02*
X165928874Y-51019152D01*
X165690779Y-50685819D02*
X165690779Y-51542961D01*
X165690779Y-51542961D02*
X165738398Y-51638200D01*
X165738398Y-51638200D02*
X165833636Y-51685819D01*
X165833636Y-51685819D02*
X165928874Y-51685819D01*
X166405065Y-51685819D02*
X166309827Y-51638200D01*
X166309827Y-51638200D02*
X166262208Y-51590580D01*
X166262208Y-51590580D02*
X166214589Y-51495342D01*
X166214589Y-51495342D02*
X166214589Y-51209628D01*
X166214589Y-51209628D02*
X166262208Y-51114390D01*
X166262208Y-51114390D02*
X166309827Y-51066771D01*
X166309827Y-51066771D02*
X166405065Y-51019152D01*
X166405065Y-51019152D02*
X166547922Y-51019152D01*
X166547922Y-51019152D02*
X166643160Y-51066771D01*
X166643160Y-51066771D02*
X166690779Y-51114390D01*
X166690779Y-51114390D02*
X166738398Y-51209628D01*
X166738398Y-51209628D02*
X166738398Y-51495342D01*
X166738398Y-51495342D02*
X166690779Y-51590580D01*
X166690779Y-51590580D02*
X166643160Y-51638200D01*
X166643160Y-51638200D02*
X166547922Y-51685819D01*
X166547922Y-51685819D02*
X166405065Y-51685819D01*
X168452684Y-50733438D02*
X168357446Y-50685819D01*
X168357446Y-50685819D02*
X168214589Y-50685819D01*
X168214589Y-50685819D02*
X168071732Y-50733438D01*
X168071732Y-50733438D02*
X167976494Y-50828676D01*
X167976494Y-50828676D02*
X167928875Y-50923914D01*
X167928875Y-50923914D02*
X167881256Y-51114390D01*
X167881256Y-51114390D02*
X167881256Y-51257247D01*
X167881256Y-51257247D02*
X167928875Y-51447723D01*
X167928875Y-51447723D02*
X167976494Y-51542961D01*
X167976494Y-51542961D02*
X168071732Y-51638200D01*
X168071732Y-51638200D02*
X168214589Y-51685819D01*
X168214589Y-51685819D02*
X168309827Y-51685819D01*
X168309827Y-51685819D02*
X168452684Y-51638200D01*
X168452684Y-51638200D02*
X168500303Y-51590580D01*
X168500303Y-51590580D02*
X168500303Y-51257247D01*
X168500303Y-51257247D02*
X168309827Y-51257247D01*
X168928875Y-51685819D02*
X168928875Y-50685819D01*
X168928875Y-50685819D02*
X169309827Y-50685819D01*
X169309827Y-50685819D02*
X169405065Y-50733438D01*
X169405065Y-50733438D02*
X169452684Y-50781057D01*
X169452684Y-50781057D02*
X169500303Y-50876295D01*
X169500303Y-50876295D02*
X169500303Y-51019152D01*
X169500303Y-51019152D02*
X169452684Y-51114390D01*
X169452684Y-51114390D02*
X169405065Y-51162009D01*
X169405065Y-51162009D02*
X169309827Y-51209628D01*
X169309827Y-51209628D02*
X168928875Y-51209628D01*
X169928875Y-51685819D02*
X169928875Y-50685819D01*
X170595541Y-50685819D02*
X170786017Y-50685819D01*
X170786017Y-50685819D02*
X170881255Y-50733438D01*
X170881255Y-50733438D02*
X170976493Y-50828676D01*
X170976493Y-50828676D02*
X171024112Y-51019152D01*
X171024112Y-51019152D02*
X171024112Y-51352485D01*
X171024112Y-51352485D02*
X170976493Y-51542961D01*
X170976493Y-51542961D02*
X170881255Y-51638200D01*
X170881255Y-51638200D02*
X170786017Y-51685819D01*
X170786017Y-51685819D02*
X170595541Y-51685819D01*
X170595541Y-51685819D02*
X170500303Y-51638200D01*
X170500303Y-51638200D02*
X170405065Y-51542961D01*
X170405065Y-51542961D02*
X170357446Y-51352485D01*
X170357446Y-51352485D02*
X170357446Y-51019152D01*
X170357446Y-51019152D02*
X170405065Y-50828676D01*
X170405065Y-50828676D02*
X170500303Y-50733438D01*
X170500303Y-50733438D02*
X170595541Y-50685819D01*
X171405065Y-50781057D02*
X171452684Y-50733438D01*
X171452684Y-50733438D02*
X171547922Y-50685819D01*
X171547922Y-50685819D02*
X171786017Y-50685819D01*
X171786017Y-50685819D02*
X171881255Y-50733438D01*
X171881255Y-50733438D02*
X171928874Y-50781057D01*
X171928874Y-50781057D02*
X171976493Y-50876295D01*
X171976493Y-50876295D02*
X171976493Y-50971533D01*
X171976493Y-50971533D02*
X171928874Y-51114390D01*
X171928874Y-51114390D02*
X171357446Y-51685819D01*
X171357446Y-51685819D02*
X171976493Y-51685819D01*
X172595541Y-50685819D02*
X172690779Y-50685819D01*
X172690779Y-50685819D02*
X172786017Y-50733438D01*
X172786017Y-50733438D02*
X172833636Y-50781057D01*
X172833636Y-50781057D02*
X172881255Y-50876295D01*
X172881255Y-50876295D02*
X172928874Y-51066771D01*
X172928874Y-51066771D02*
X172928874Y-51304866D01*
X172928874Y-51304866D02*
X172881255Y-51495342D01*
X172881255Y-51495342D02*
X172833636Y-51590580D01*
X172833636Y-51590580D02*
X172786017Y-51638200D01*
X172786017Y-51638200D02*
X172690779Y-51685819D01*
X172690779Y-51685819D02*
X172595541Y-51685819D01*
X172595541Y-51685819D02*
X172500303Y-51638200D01*
X172500303Y-51638200D02*
X172452684Y-51590580D01*
X172452684Y-51590580D02*
X172405065Y-51495342D01*
X172405065Y-51495342D02*
X172357446Y-51304866D01*
X172357446Y-51304866D02*
X172357446Y-51066771D01*
X172357446Y-51066771D02*
X172405065Y-50876295D01*
X172405065Y-50876295D02*
X172452684Y-50781057D01*
X172452684Y-50781057D02*
X172500303Y-50733438D01*
X172500303Y-50733438D02*
X172595541Y-50685819D01*
X178549541Y-58807208D02*
X179073350Y-58807208D01*
X179073350Y-58807208D02*
X178549541Y-59473875D01*
X178549541Y-59473875D02*
X179073350Y-59473875D01*
X179454303Y-59473875D02*
X179454303Y-58807208D01*
X179454303Y-58473875D02*
X179406684Y-58521494D01*
X179406684Y-58521494D02*
X179454303Y-58569113D01*
X179454303Y-58569113D02*
X179501922Y-58521494D01*
X179501922Y-58521494D02*
X179454303Y-58473875D01*
X179454303Y-58473875D02*
X179454303Y-58569113D01*
X179930493Y-58807208D02*
X179930493Y-59807208D01*
X179930493Y-58854827D02*
X180025731Y-58807208D01*
X180025731Y-58807208D02*
X180216207Y-58807208D01*
X180216207Y-58807208D02*
X180311445Y-58854827D01*
X180311445Y-58854827D02*
X180359064Y-58902446D01*
X180359064Y-58902446D02*
X180406683Y-58997684D01*
X180406683Y-58997684D02*
X180406683Y-59283398D01*
X180406683Y-59283398D02*
X180359064Y-59378636D01*
X180359064Y-59378636D02*
X180311445Y-59426256D01*
X180311445Y-59426256D02*
X180216207Y-59473875D01*
X180216207Y-59473875D02*
X180025731Y-59473875D01*
X180025731Y-59473875D02*
X179930493Y-59426256D01*
X178501922Y-60417152D02*
X178882874Y-60417152D01*
X178644779Y-60083819D02*
X178644779Y-60940961D01*
X178644779Y-60940961D02*
X178692398Y-61036200D01*
X178692398Y-61036200D02*
X178787636Y-61083819D01*
X178787636Y-61083819D02*
X178882874Y-61083819D01*
X179216208Y-61083819D02*
X179216208Y-60417152D01*
X179216208Y-60083819D02*
X179168589Y-60131438D01*
X179168589Y-60131438D02*
X179216208Y-60179057D01*
X179216208Y-60179057D02*
X179263827Y-60131438D01*
X179263827Y-60131438D02*
X179216208Y-60083819D01*
X179216208Y-60083819D02*
X179216208Y-60179057D01*
X180073350Y-61036200D02*
X179978112Y-61083819D01*
X179978112Y-61083819D02*
X179787636Y-61083819D01*
X179787636Y-61083819D02*
X179692398Y-61036200D01*
X179692398Y-61036200D02*
X179644779Y-60940961D01*
X179644779Y-60940961D02*
X179644779Y-60560009D01*
X179644779Y-60560009D02*
X179692398Y-60464771D01*
X179692398Y-60464771D02*
X179787636Y-60417152D01*
X179787636Y-60417152D02*
X179978112Y-60417152D01*
X179978112Y-60417152D02*
X180073350Y-60464771D01*
X180073350Y-60464771D02*
X180120969Y-60560009D01*
X180120969Y-60560009D02*
X180120969Y-60655247D01*
X180120969Y-60655247D02*
X179644779Y-60750485D01*
X114033446Y-72189875D02*
X114652493Y-72189875D01*
X114652493Y-72189875D02*
X114319160Y-72570827D01*
X114319160Y-72570827D02*
X114462017Y-72570827D01*
X114462017Y-72570827D02*
X114557255Y-72618446D01*
X114557255Y-72618446D02*
X114604874Y-72666065D01*
X114604874Y-72666065D02*
X114652493Y-72761303D01*
X114652493Y-72761303D02*
X114652493Y-72999398D01*
X114652493Y-72999398D02*
X114604874Y-73094636D01*
X114604874Y-73094636D02*
X114557255Y-73142256D01*
X114557255Y-73142256D02*
X114462017Y-73189875D01*
X114462017Y-73189875D02*
X114176303Y-73189875D01*
X114176303Y-73189875D02*
X114081065Y-73142256D01*
X114081065Y-73142256D02*
X114033446Y-73094636D01*
X115271541Y-72189875D02*
X115366779Y-72189875D01*
X115366779Y-72189875D02*
X115462017Y-72237494D01*
X115462017Y-72237494D02*
X115509636Y-72285113D01*
X115509636Y-72285113D02*
X115557255Y-72380351D01*
X115557255Y-72380351D02*
X115604874Y-72570827D01*
X115604874Y-72570827D02*
X115604874Y-72808922D01*
X115604874Y-72808922D02*
X115557255Y-72999398D01*
X115557255Y-72999398D02*
X115509636Y-73094636D01*
X115509636Y-73094636D02*
X115462017Y-73142256D01*
X115462017Y-73142256D02*
X115366779Y-73189875D01*
X115366779Y-73189875D02*
X115271541Y-73189875D01*
X115271541Y-73189875D02*
X115176303Y-73142256D01*
X115176303Y-73142256D02*
X115128684Y-73094636D01*
X115128684Y-73094636D02*
X115081065Y-72999398D01*
X115081065Y-72999398D02*
X115033446Y-72808922D01*
X115033446Y-72808922D02*
X115033446Y-72570827D01*
X115033446Y-72570827D02*
X115081065Y-72380351D01*
X115081065Y-72380351D02*
X115128684Y-72285113D01*
X115128684Y-72285113D02*
X115176303Y-72237494D01*
X115176303Y-72237494D02*
X115271541Y-72189875D01*
X116604874Y-73189875D02*
X116271541Y-72713684D01*
X116033446Y-73189875D02*
X116033446Y-72189875D01*
X116033446Y-72189875D02*
X116414398Y-72189875D01*
X116414398Y-72189875D02*
X116509636Y-72237494D01*
X116509636Y-72237494D02*
X116557255Y-72285113D01*
X116557255Y-72285113D02*
X116604874Y-72380351D01*
X116604874Y-72380351D02*
X116604874Y-72523208D01*
X116604874Y-72523208D02*
X116557255Y-72618446D01*
X116557255Y-72618446D02*
X116509636Y-72666065D01*
X116509636Y-72666065D02*
X116414398Y-72713684D01*
X116414398Y-72713684D02*
X116033446Y-72713684D01*
X117700113Y-72189875D02*
X117938208Y-73189875D01*
X117938208Y-73189875D02*
X118128684Y-72475589D01*
X118128684Y-72475589D02*
X118319160Y-73189875D01*
X118319160Y-73189875D02*
X118557256Y-72189875D01*
X118938208Y-73189875D02*
X118938208Y-72189875D01*
X118938208Y-72666065D02*
X119509636Y-72666065D01*
X119509636Y-73189875D02*
X119509636Y-72189875D01*
X119985827Y-73189875D02*
X119985827Y-72189875D01*
X120319160Y-72189875D02*
X120890588Y-72189875D01*
X120604874Y-73189875D02*
X120604874Y-72189875D01*
X121223922Y-72666065D02*
X121557255Y-72666065D01*
X121700112Y-73189875D02*
X121223922Y-73189875D01*
X121223922Y-73189875D02*
X121223922Y-72189875D01*
X121223922Y-72189875D02*
X121700112Y-72189875D01*
X113842969Y-73799819D02*
X113366779Y-73799819D01*
X113366779Y-73799819D02*
X113319160Y-74276009D01*
X113319160Y-74276009D02*
X113366779Y-74228390D01*
X113366779Y-74228390D02*
X113462017Y-74180771D01*
X113462017Y-74180771D02*
X113700112Y-74180771D01*
X113700112Y-74180771D02*
X113795350Y-74228390D01*
X113795350Y-74228390D02*
X113842969Y-74276009D01*
X113842969Y-74276009D02*
X113890588Y-74371247D01*
X113890588Y-74371247D02*
X113890588Y-74609342D01*
X113890588Y-74609342D02*
X113842969Y-74704580D01*
X113842969Y-74704580D02*
X113795350Y-74752200D01*
X113795350Y-74752200D02*
X113700112Y-74799819D01*
X113700112Y-74799819D02*
X113462017Y-74799819D01*
X113462017Y-74799819D02*
X113366779Y-74752200D01*
X113366779Y-74752200D02*
X113319160Y-74704580D01*
X114509636Y-73799819D02*
X114604874Y-73799819D01*
X114604874Y-73799819D02*
X114700112Y-73847438D01*
X114700112Y-73847438D02*
X114747731Y-73895057D01*
X114747731Y-73895057D02*
X114795350Y-73990295D01*
X114795350Y-73990295D02*
X114842969Y-74180771D01*
X114842969Y-74180771D02*
X114842969Y-74418866D01*
X114842969Y-74418866D02*
X114795350Y-74609342D01*
X114795350Y-74609342D02*
X114747731Y-74704580D01*
X114747731Y-74704580D02*
X114700112Y-74752200D01*
X114700112Y-74752200D02*
X114604874Y-74799819D01*
X114604874Y-74799819D02*
X114509636Y-74799819D01*
X114509636Y-74799819D02*
X114414398Y-74752200D01*
X114414398Y-74752200D02*
X114366779Y-74704580D01*
X114366779Y-74704580D02*
X114319160Y-74609342D01*
X114319160Y-74609342D02*
X114271541Y-74418866D01*
X114271541Y-74418866D02*
X114271541Y-74180771D01*
X114271541Y-74180771D02*
X114319160Y-73990295D01*
X114319160Y-73990295D02*
X114366779Y-73895057D01*
X114366779Y-73895057D02*
X114414398Y-73847438D01*
X114414398Y-73847438D02*
X114509636Y-73799819D01*
X115462017Y-73799819D02*
X115557255Y-73799819D01*
X115557255Y-73799819D02*
X115652493Y-73847438D01*
X115652493Y-73847438D02*
X115700112Y-73895057D01*
X115700112Y-73895057D02*
X115747731Y-73990295D01*
X115747731Y-73990295D02*
X115795350Y-74180771D01*
X115795350Y-74180771D02*
X115795350Y-74418866D01*
X115795350Y-74418866D02*
X115747731Y-74609342D01*
X115747731Y-74609342D02*
X115700112Y-74704580D01*
X115700112Y-74704580D02*
X115652493Y-74752200D01*
X115652493Y-74752200D02*
X115557255Y-74799819D01*
X115557255Y-74799819D02*
X115462017Y-74799819D01*
X115462017Y-74799819D02*
X115366779Y-74752200D01*
X115366779Y-74752200D02*
X115319160Y-74704580D01*
X115319160Y-74704580D02*
X115271541Y-74609342D01*
X115271541Y-74609342D02*
X115223922Y-74418866D01*
X115223922Y-74418866D02*
X115223922Y-74180771D01*
X115223922Y-74180771D02*
X115271541Y-73990295D01*
X115271541Y-73990295D02*
X115319160Y-73895057D01*
X115319160Y-73895057D02*
X115366779Y-73847438D01*
X115366779Y-73847438D02*
X115462017Y-73799819D01*
X116795350Y-74799819D02*
X116462017Y-74323628D01*
X116223922Y-74799819D02*
X116223922Y-73799819D01*
X116223922Y-73799819D02*
X116604874Y-73799819D01*
X116604874Y-73799819D02*
X116700112Y-73847438D01*
X116700112Y-73847438D02*
X116747731Y-73895057D01*
X116747731Y-73895057D02*
X116795350Y-73990295D01*
X116795350Y-73990295D02*
X116795350Y-74133152D01*
X116795350Y-74133152D02*
X116747731Y-74228390D01*
X116747731Y-74228390D02*
X116700112Y-74276009D01*
X116700112Y-74276009D02*
X116604874Y-74323628D01*
X116604874Y-74323628D02*
X116223922Y-74323628D01*
X118509636Y-73847438D02*
X118414398Y-73799819D01*
X118414398Y-73799819D02*
X118271541Y-73799819D01*
X118271541Y-73799819D02*
X118128684Y-73847438D01*
X118128684Y-73847438D02*
X118033446Y-73942676D01*
X118033446Y-73942676D02*
X117985827Y-74037914D01*
X117985827Y-74037914D02*
X117938208Y-74228390D01*
X117938208Y-74228390D02*
X117938208Y-74371247D01*
X117938208Y-74371247D02*
X117985827Y-74561723D01*
X117985827Y-74561723D02*
X118033446Y-74656961D01*
X118033446Y-74656961D02*
X118128684Y-74752200D01*
X118128684Y-74752200D02*
X118271541Y-74799819D01*
X118271541Y-74799819D02*
X118366779Y-74799819D01*
X118366779Y-74799819D02*
X118509636Y-74752200D01*
X118509636Y-74752200D02*
X118557255Y-74704580D01*
X118557255Y-74704580D02*
X118557255Y-74371247D01*
X118557255Y-74371247D02*
X118366779Y-74371247D01*
X119557255Y-74799819D02*
X119223922Y-74323628D01*
X118985827Y-74799819D02*
X118985827Y-73799819D01*
X118985827Y-73799819D02*
X119366779Y-73799819D01*
X119366779Y-73799819D02*
X119462017Y-73847438D01*
X119462017Y-73847438D02*
X119509636Y-73895057D01*
X119509636Y-73895057D02*
X119557255Y-73990295D01*
X119557255Y-73990295D02*
X119557255Y-74133152D01*
X119557255Y-74133152D02*
X119509636Y-74228390D01*
X119509636Y-74228390D02*
X119462017Y-74276009D01*
X119462017Y-74276009D02*
X119366779Y-74323628D01*
X119366779Y-74323628D02*
X118985827Y-74323628D01*
X119985827Y-74276009D02*
X120319160Y-74276009D01*
X120462017Y-74799819D02*
X119985827Y-74799819D01*
X119985827Y-74799819D02*
X119985827Y-73799819D01*
X119985827Y-73799819D02*
X120462017Y-73799819D01*
X120890589Y-74276009D02*
X121223922Y-74276009D01*
X121366779Y-74799819D02*
X120890589Y-74799819D01*
X120890589Y-74799819D02*
X120890589Y-73799819D01*
X120890589Y-73799819D02*
X121366779Y-73799819D01*
X121795351Y-74799819D02*
X121795351Y-73799819D01*
X121795351Y-73799819D02*
X122366779Y-74799819D01*
X122366779Y-74799819D02*
X122366779Y-73799819D01*
X123604875Y-73799819D02*
X123604875Y-74609342D01*
X123604875Y-74609342D02*
X123652494Y-74704580D01*
X123652494Y-74704580D02*
X123700113Y-74752200D01*
X123700113Y-74752200D02*
X123795351Y-74799819D01*
X123795351Y-74799819D02*
X123985827Y-74799819D01*
X123985827Y-74799819D02*
X124081065Y-74752200D01*
X124081065Y-74752200D02*
X124128684Y-74704580D01*
X124128684Y-74704580D02*
X124176303Y-74609342D01*
X124176303Y-74609342D02*
X124176303Y-73799819D01*
X125128684Y-74799819D02*
X124652494Y-74799819D01*
X124652494Y-74799819D02*
X124652494Y-73799819D01*
X125462018Y-74799819D02*
X125462018Y-73799819D01*
X125462018Y-73799819D02*
X125842970Y-73799819D01*
X125842970Y-73799819D02*
X125938208Y-73847438D01*
X125938208Y-73847438D02*
X125985827Y-73895057D01*
X125985827Y-73895057D02*
X126033446Y-73990295D01*
X126033446Y-73990295D02*
X126033446Y-74133152D01*
X126033446Y-74133152D02*
X125985827Y-74228390D01*
X125985827Y-74228390D02*
X125938208Y-74276009D01*
X125938208Y-74276009D02*
X125842970Y-74323628D01*
X125842970Y-74323628D02*
X125462018Y-74323628D01*
X92784819Y-70343093D02*
X91784819Y-70343093D01*
X91784819Y-70343093D02*
X91784819Y-70104998D01*
X91784819Y-70104998D02*
X91832438Y-69962141D01*
X91832438Y-69962141D02*
X91927676Y-69866903D01*
X91927676Y-69866903D02*
X92022914Y-69819284D01*
X92022914Y-69819284D02*
X92213390Y-69771665D01*
X92213390Y-69771665D02*
X92356247Y-69771665D01*
X92356247Y-69771665D02*
X92546723Y-69819284D01*
X92546723Y-69819284D02*
X92641961Y-69866903D01*
X92641961Y-69866903D02*
X92737200Y-69962141D01*
X92737200Y-69962141D02*
X92784819Y-70104998D01*
X92784819Y-70104998D02*
X92784819Y-70343093D01*
X92784819Y-68819284D02*
X92784819Y-69390712D01*
X92784819Y-69104998D02*
X91784819Y-69104998D01*
X91784819Y-69104998D02*
X91927676Y-69200236D01*
X91927676Y-69200236D02*
X92022914Y-69295474D01*
X92022914Y-69295474D02*
X92070533Y-69390712D01*
X141621142Y-73114819D02*
X141621142Y-73829104D01*
X141621142Y-73829104D02*
X141573523Y-73971961D01*
X141573523Y-73971961D02*
X141478285Y-74067200D01*
X141478285Y-74067200D02*
X141335428Y-74114819D01*
X141335428Y-74114819D02*
X141240190Y-74114819D01*
X142097333Y-74114819D02*
X142097333Y-73114819D01*
X142097333Y-73114819D02*
X142478285Y-73114819D01*
X142478285Y-73114819D02*
X142573523Y-73162438D01*
X142573523Y-73162438D02*
X142621142Y-73210057D01*
X142621142Y-73210057D02*
X142668761Y-73305295D01*
X142668761Y-73305295D02*
X142668761Y-73448152D01*
X142668761Y-73448152D02*
X142621142Y-73543390D01*
X142621142Y-73543390D02*
X142573523Y-73591009D01*
X142573523Y-73591009D02*
X142478285Y-73638628D01*
X142478285Y-73638628D02*
X142097333Y-73638628D01*
X144049714Y-73114819D02*
X144240190Y-73114819D01*
X144240190Y-73114819D02*
X144335428Y-73162438D01*
X144335428Y-73162438D02*
X144430666Y-73257676D01*
X144430666Y-73257676D02*
X144478285Y-73448152D01*
X144478285Y-73448152D02*
X144478285Y-73781485D01*
X144478285Y-73781485D02*
X144430666Y-73971961D01*
X144430666Y-73971961D02*
X144335428Y-74067200D01*
X144335428Y-74067200D02*
X144240190Y-74114819D01*
X144240190Y-74114819D02*
X144049714Y-74114819D01*
X144049714Y-74114819D02*
X143954476Y-74067200D01*
X143954476Y-74067200D02*
X143859238Y-73971961D01*
X143859238Y-73971961D02*
X143811619Y-73781485D01*
X143811619Y-73781485D02*
X143811619Y-73448152D01*
X143811619Y-73448152D02*
X143859238Y-73257676D01*
X143859238Y-73257676D02*
X143954476Y-73162438D01*
X143954476Y-73162438D02*
X144049714Y-73114819D01*
X144906857Y-74114819D02*
X144906857Y-73114819D01*
X144906857Y-73114819D02*
X145287809Y-73114819D01*
X145287809Y-73114819D02*
X145383047Y-73162438D01*
X145383047Y-73162438D02*
X145430666Y-73210057D01*
X145430666Y-73210057D02*
X145478285Y-73305295D01*
X145478285Y-73305295D02*
X145478285Y-73448152D01*
X145478285Y-73448152D02*
X145430666Y-73543390D01*
X145430666Y-73543390D02*
X145383047Y-73591009D01*
X145383047Y-73591009D02*
X145287809Y-73638628D01*
X145287809Y-73638628D02*
X144906857Y-73638628D01*
X145764000Y-73114819D02*
X146335428Y-73114819D01*
X146049714Y-74114819D02*
X146049714Y-73114819D01*
X109548819Y-70343094D02*
X108548819Y-70343094D01*
X108548819Y-70343094D02*
X108548819Y-70104999D01*
X108548819Y-70104999D02*
X108596438Y-69962142D01*
X108596438Y-69962142D02*
X108691676Y-69866904D01*
X108691676Y-69866904D02*
X108786914Y-69819285D01*
X108786914Y-69819285D02*
X108977390Y-69771666D01*
X108977390Y-69771666D02*
X109120247Y-69771666D01*
X109120247Y-69771666D02*
X109310723Y-69819285D01*
X109310723Y-69819285D02*
X109405961Y-69866904D01*
X109405961Y-69866904D02*
X109501200Y-69962142D01*
X109501200Y-69962142D02*
X109548819Y-70104999D01*
X109548819Y-70104999D02*
X109548819Y-70343094D01*
X108882152Y-68914523D02*
X109548819Y-68914523D01*
X108501200Y-69152618D02*
X109215485Y-69390713D01*
X109215485Y-69390713D02*
X109215485Y-68771666D01*
X95321333Y-65098819D02*
X94988000Y-64622628D01*
X94749905Y-65098819D02*
X94749905Y-64098819D01*
X94749905Y-64098819D02*
X95130857Y-64098819D01*
X95130857Y-64098819D02*
X95226095Y-64146438D01*
X95226095Y-64146438D02*
X95273714Y-64194057D01*
X95273714Y-64194057D02*
X95321333Y-64289295D01*
X95321333Y-64289295D02*
X95321333Y-64432152D01*
X95321333Y-64432152D02*
X95273714Y-64527390D01*
X95273714Y-64527390D02*
X95226095Y-64575009D01*
X95226095Y-64575009D02*
X95130857Y-64622628D01*
X95130857Y-64622628D02*
X94749905Y-64622628D01*
X96273714Y-65098819D02*
X95702286Y-65098819D01*
X95988000Y-65098819D02*
X95988000Y-64098819D01*
X95988000Y-64098819D02*
X95892762Y-64241676D01*
X95892762Y-64241676D02*
X95797524Y-64336914D01*
X95797524Y-64336914D02*
X95702286Y-64384533D01*
X143533332Y-46079580D02*
X143485713Y-46127200D01*
X143485713Y-46127200D02*
X143342856Y-46174819D01*
X143342856Y-46174819D02*
X143247618Y-46174819D01*
X143247618Y-46174819D02*
X143104761Y-46127200D01*
X143104761Y-46127200D02*
X143009523Y-46031961D01*
X143009523Y-46031961D02*
X142961904Y-45936723D01*
X142961904Y-45936723D02*
X142914285Y-45746247D01*
X142914285Y-45746247D02*
X142914285Y-45603390D01*
X142914285Y-45603390D02*
X142961904Y-45412914D01*
X142961904Y-45412914D02*
X143009523Y-45317676D01*
X143009523Y-45317676D02*
X143104761Y-45222438D01*
X143104761Y-45222438D02*
X143247618Y-45174819D01*
X143247618Y-45174819D02*
X143342856Y-45174819D01*
X143342856Y-45174819D02*
X143485713Y-45222438D01*
X143485713Y-45222438D02*
X143533332Y-45270057D01*
X143914285Y-45270057D02*
X143961904Y-45222438D01*
X143961904Y-45222438D02*
X144057142Y-45174819D01*
X144057142Y-45174819D02*
X144295237Y-45174819D01*
X144295237Y-45174819D02*
X144390475Y-45222438D01*
X144390475Y-45222438D02*
X144438094Y-45270057D01*
X144438094Y-45270057D02*
X144485713Y-45365295D01*
X144485713Y-45365295D02*
X144485713Y-45460533D01*
X144485713Y-45460533D02*
X144438094Y-45603390D01*
X144438094Y-45603390D02*
X143866666Y-46174819D01*
X143866666Y-46174819D02*
X144485713Y-46174819D01*
X147359580Y-56304165D02*
X147407200Y-56351784D01*
X147407200Y-56351784D02*
X147454819Y-56494641D01*
X147454819Y-56494641D02*
X147454819Y-56589879D01*
X147454819Y-56589879D02*
X147407200Y-56732736D01*
X147407200Y-56732736D02*
X147311961Y-56827974D01*
X147311961Y-56827974D02*
X147216723Y-56875593D01*
X147216723Y-56875593D02*
X147026247Y-56923212D01*
X147026247Y-56923212D02*
X146883390Y-56923212D01*
X146883390Y-56923212D02*
X146692914Y-56875593D01*
X146692914Y-56875593D02*
X146597676Y-56827974D01*
X146597676Y-56827974D02*
X146502438Y-56732736D01*
X146502438Y-56732736D02*
X146454819Y-56589879D01*
X146454819Y-56589879D02*
X146454819Y-56494641D01*
X146454819Y-56494641D02*
X146502438Y-56351784D01*
X146502438Y-56351784D02*
X146550057Y-56304165D01*
X146788152Y-55447022D02*
X147454819Y-55447022D01*
X146407200Y-55685117D02*
X147121485Y-55923212D01*
X147121485Y-55923212D02*
X147121485Y-55304165D01*
X125491976Y-45790295D02*
X125491976Y-46437914D01*
X125491976Y-46437914D02*
X125530071Y-46514104D01*
X125530071Y-46514104D02*
X125568166Y-46552200D01*
X125568166Y-46552200D02*
X125644357Y-46590295D01*
X125644357Y-46590295D02*
X125796738Y-46590295D01*
X125796738Y-46590295D02*
X125872928Y-46552200D01*
X125872928Y-46552200D02*
X125911023Y-46514104D01*
X125911023Y-46514104D02*
X125949119Y-46437914D01*
X125949119Y-46437914D02*
X125949119Y-45790295D01*
X126749118Y-46590295D02*
X126291975Y-46590295D01*
X126520547Y-46590295D02*
X126520547Y-45790295D01*
X126520547Y-45790295D02*
X126444356Y-45904580D01*
X126444356Y-45904580D02*
X126368166Y-45980771D01*
X126368166Y-45980771D02*
X126291975Y-46018866D01*
X98372819Y-70343093D02*
X97372819Y-70343093D01*
X97372819Y-70343093D02*
X97372819Y-70104998D01*
X97372819Y-70104998D02*
X97420438Y-69962141D01*
X97420438Y-69962141D02*
X97515676Y-69866903D01*
X97515676Y-69866903D02*
X97610914Y-69819284D01*
X97610914Y-69819284D02*
X97801390Y-69771665D01*
X97801390Y-69771665D02*
X97944247Y-69771665D01*
X97944247Y-69771665D02*
X98134723Y-69819284D01*
X98134723Y-69819284D02*
X98229961Y-69866903D01*
X98229961Y-69866903D02*
X98325200Y-69962141D01*
X98325200Y-69962141D02*
X98372819Y-70104998D01*
X98372819Y-70104998D02*
X98372819Y-70343093D01*
X97468057Y-69390712D02*
X97420438Y-69343093D01*
X97420438Y-69343093D02*
X97372819Y-69247855D01*
X97372819Y-69247855D02*
X97372819Y-69009760D01*
X97372819Y-69009760D02*
X97420438Y-68914522D01*
X97420438Y-68914522D02*
X97468057Y-68866903D01*
X97468057Y-68866903D02*
X97563295Y-68819284D01*
X97563295Y-68819284D02*
X97658533Y-68819284D01*
X97658533Y-68819284D02*
X97801390Y-68866903D01*
X97801390Y-68866903D02*
X98372819Y-69438331D01*
X98372819Y-69438331D02*
X98372819Y-68819284D01*
X87901200Y-64833332D02*
X87948819Y-64690475D01*
X87948819Y-64690475D02*
X87948819Y-64452380D01*
X87948819Y-64452380D02*
X87901200Y-64357142D01*
X87901200Y-64357142D02*
X87853580Y-64309523D01*
X87853580Y-64309523D02*
X87758342Y-64261904D01*
X87758342Y-64261904D02*
X87663104Y-64261904D01*
X87663104Y-64261904D02*
X87567866Y-64309523D01*
X87567866Y-64309523D02*
X87520247Y-64357142D01*
X87520247Y-64357142D02*
X87472628Y-64452380D01*
X87472628Y-64452380D02*
X87425009Y-64642856D01*
X87425009Y-64642856D02*
X87377390Y-64738094D01*
X87377390Y-64738094D02*
X87329771Y-64785713D01*
X87329771Y-64785713D02*
X87234533Y-64833332D01*
X87234533Y-64833332D02*
X87139295Y-64833332D01*
X87139295Y-64833332D02*
X87044057Y-64785713D01*
X87044057Y-64785713D02*
X86996438Y-64738094D01*
X86996438Y-64738094D02*
X86948819Y-64642856D01*
X86948819Y-64642856D02*
X86948819Y-64404761D01*
X86948819Y-64404761D02*
X86996438Y-64261904D01*
X86948819Y-63928570D02*
X87948819Y-63690475D01*
X87948819Y-63690475D02*
X87234533Y-63499999D01*
X87234533Y-63499999D02*
X87948819Y-63309523D01*
X87948819Y-63309523D02*
X86948819Y-63071428D01*
X87948819Y-62166666D02*
X87948819Y-62738094D01*
X87948819Y-62452380D02*
X86948819Y-62452380D01*
X86948819Y-62452380D02*
X87091676Y-62547618D01*
X87091676Y-62547618D02*
X87186914Y-62642856D01*
X87186914Y-62642856D02*
X87234533Y-62738094D01*
X106529333Y-65098819D02*
X106196000Y-64622628D01*
X105957905Y-65098819D02*
X105957905Y-64098819D01*
X105957905Y-64098819D02*
X106338857Y-64098819D01*
X106338857Y-64098819D02*
X106434095Y-64146438D01*
X106434095Y-64146438D02*
X106481714Y-64194057D01*
X106481714Y-64194057D02*
X106529333Y-64289295D01*
X106529333Y-64289295D02*
X106529333Y-64432152D01*
X106529333Y-64432152D02*
X106481714Y-64527390D01*
X106481714Y-64527390D02*
X106434095Y-64575009D01*
X106434095Y-64575009D02*
X106338857Y-64622628D01*
X106338857Y-64622628D02*
X105957905Y-64622628D01*
X106862667Y-64098819D02*
X107481714Y-64098819D01*
X107481714Y-64098819D02*
X107148381Y-64479771D01*
X107148381Y-64479771D02*
X107291238Y-64479771D01*
X107291238Y-64479771D02*
X107386476Y-64527390D01*
X107386476Y-64527390D02*
X107434095Y-64575009D01*
X107434095Y-64575009D02*
X107481714Y-64670247D01*
X107481714Y-64670247D02*
X107481714Y-64908342D01*
X107481714Y-64908342D02*
X107434095Y-65003580D01*
X107434095Y-65003580D02*
X107386476Y-65051200D01*
X107386476Y-65051200D02*
X107291238Y-65098819D01*
X107291238Y-65098819D02*
X107005524Y-65098819D01*
X107005524Y-65098819D02*
X106910286Y-65051200D01*
X106910286Y-65051200D02*
X106862667Y-65003580D01*
X149874819Y-50354904D02*
X150684342Y-50354904D01*
X150684342Y-50354904D02*
X150779580Y-50307285D01*
X150779580Y-50307285D02*
X150827200Y-50259666D01*
X150827200Y-50259666D02*
X150874819Y-50164428D01*
X150874819Y-50164428D02*
X150874819Y-49973952D01*
X150874819Y-49973952D02*
X150827200Y-49878714D01*
X150827200Y-49878714D02*
X150779580Y-49831095D01*
X150779580Y-49831095D02*
X150684342Y-49783476D01*
X150684342Y-49783476D02*
X149874819Y-49783476D01*
X149970057Y-49354904D02*
X149922438Y-49307285D01*
X149922438Y-49307285D02*
X149874819Y-49212047D01*
X149874819Y-49212047D02*
X149874819Y-48973952D01*
X149874819Y-48973952D02*
X149922438Y-48878714D01*
X149922438Y-48878714D02*
X149970057Y-48831095D01*
X149970057Y-48831095D02*
X150065295Y-48783476D01*
X150065295Y-48783476D02*
X150160533Y-48783476D01*
X150160533Y-48783476D02*
X150303390Y-48831095D01*
X150303390Y-48831095D02*
X150874819Y-49402523D01*
X150874819Y-49402523D02*
X150874819Y-48783476D01*
X136174819Y-55363523D02*
X136174819Y-54792095D01*
X137174819Y-55077809D02*
X136174819Y-55077809D01*
X137174819Y-54458761D02*
X136174819Y-54458761D01*
X136174819Y-54458761D02*
X136889104Y-54125428D01*
X136889104Y-54125428D02*
X136174819Y-53792095D01*
X136174819Y-53792095D02*
X137174819Y-53792095D01*
X136651009Y-53315904D02*
X136651009Y-52982571D01*
X137174819Y-52839714D02*
X137174819Y-53315904D01*
X137174819Y-53315904D02*
X136174819Y-53315904D01*
X136174819Y-53315904D02*
X136174819Y-52839714D01*
X136793866Y-52411142D02*
X136793866Y-51649238D01*
X136174819Y-50982571D02*
X136174819Y-50887333D01*
X136174819Y-50887333D02*
X136222438Y-50792095D01*
X136222438Y-50792095D02*
X136270057Y-50744476D01*
X136270057Y-50744476D02*
X136365295Y-50696857D01*
X136365295Y-50696857D02*
X136555771Y-50649238D01*
X136555771Y-50649238D02*
X136793866Y-50649238D01*
X136793866Y-50649238D02*
X136984342Y-50696857D01*
X136984342Y-50696857D02*
X137079580Y-50744476D01*
X137079580Y-50744476D02*
X137127200Y-50792095D01*
X137127200Y-50792095D02*
X137174819Y-50887333D01*
X137174819Y-50887333D02*
X137174819Y-50982571D01*
X137174819Y-50982571D02*
X137127200Y-51077809D01*
X137127200Y-51077809D02*
X137079580Y-51125428D01*
X137079580Y-51125428D02*
X136984342Y-51173047D01*
X136984342Y-51173047D02*
X136793866Y-51220666D01*
X136793866Y-51220666D02*
X136555771Y-51220666D01*
X136555771Y-51220666D02*
X136365295Y-51173047D01*
X136365295Y-51173047D02*
X136270057Y-51125428D01*
X136270057Y-51125428D02*
X136222438Y-51077809D01*
X136222438Y-51077809D02*
X136174819Y-50982571D01*
X136174819Y-49744476D02*
X136174819Y-50220666D01*
X136174819Y-50220666D02*
X136651009Y-50268285D01*
X136651009Y-50268285D02*
X136603390Y-50220666D01*
X136603390Y-50220666D02*
X136555771Y-50125428D01*
X136555771Y-50125428D02*
X136555771Y-49887333D01*
X136555771Y-49887333D02*
X136603390Y-49792095D01*
X136603390Y-49792095D02*
X136651009Y-49744476D01*
X136651009Y-49744476D02*
X136746247Y-49696857D01*
X136746247Y-49696857D02*
X136984342Y-49696857D01*
X136984342Y-49696857D02*
X137079580Y-49744476D01*
X137079580Y-49744476D02*
X137127200Y-49792095D01*
X137127200Y-49792095D02*
X137174819Y-49887333D01*
X137174819Y-49887333D02*
X137174819Y-50125428D01*
X137174819Y-50125428D02*
X137127200Y-50220666D01*
X137127200Y-50220666D02*
X137079580Y-50268285D01*
X136174819Y-49077809D02*
X136174819Y-48982571D01*
X136174819Y-48982571D02*
X136222438Y-48887333D01*
X136222438Y-48887333D02*
X136270057Y-48839714D01*
X136270057Y-48839714D02*
X136365295Y-48792095D01*
X136365295Y-48792095D02*
X136555771Y-48744476D01*
X136555771Y-48744476D02*
X136793866Y-48744476D01*
X136793866Y-48744476D02*
X136984342Y-48792095D01*
X136984342Y-48792095D02*
X137079580Y-48839714D01*
X137079580Y-48839714D02*
X137127200Y-48887333D01*
X137127200Y-48887333D02*
X137174819Y-48982571D01*
X137174819Y-48982571D02*
X137174819Y-49077809D01*
X137174819Y-49077809D02*
X137127200Y-49173047D01*
X137127200Y-49173047D02*
X137079580Y-49220666D01*
X137079580Y-49220666D02*
X136984342Y-49268285D01*
X136984342Y-49268285D02*
X136793866Y-49315904D01*
X136793866Y-49315904D02*
X136555771Y-49315904D01*
X136555771Y-49315904D02*
X136365295Y-49268285D01*
X136365295Y-49268285D02*
X136270057Y-49220666D01*
X136270057Y-49220666D02*
X136222438Y-49173047D01*
X136222438Y-49173047D02*
X136174819Y-49077809D01*
X136174819Y-48411142D02*
X136174819Y-47792095D01*
X136174819Y-47792095D02*
X136555771Y-48125428D01*
X136555771Y-48125428D02*
X136555771Y-47982571D01*
X136555771Y-47982571D02*
X136603390Y-47887333D01*
X136603390Y-47887333D02*
X136651009Y-47839714D01*
X136651009Y-47839714D02*
X136746247Y-47792095D01*
X136746247Y-47792095D02*
X136984342Y-47792095D01*
X136984342Y-47792095D02*
X137079580Y-47839714D01*
X137079580Y-47839714D02*
X137127200Y-47887333D01*
X137127200Y-47887333D02*
X137174819Y-47982571D01*
X137174819Y-47982571D02*
X137174819Y-48268285D01*
X137174819Y-48268285D02*
X137127200Y-48363523D01*
X137127200Y-48363523D02*
X137079580Y-48411142D01*
X137127200Y-47411142D02*
X137174819Y-47268285D01*
X137174819Y-47268285D02*
X137174819Y-47030190D01*
X137174819Y-47030190D02*
X137127200Y-46934952D01*
X137127200Y-46934952D02*
X137079580Y-46887333D01*
X137079580Y-46887333D02*
X136984342Y-46839714D01*
X136984342Y-46839714D02*
X136889104Y-46839714D01*
X136889104Y-46839714D02*
X136793866Y-46887333D01*
X136793866Y-46887333D02*
X136746247Y-46934952D01*
X136746247Y-46934952D02*
X136698628Y-47030190D01*
X136698628Y-47030190D02*
X136651009Y-47220666D01*
X136651009Y-47220666D02*
X136603390Y-47315904D01*
X136603390Y-47315904D02*
X136555771Y-47363523D01*
X136555771Y-47363523D02*
X136460533Y-47411142D01*
X136460533Y-47411142D02*
X136365295Y-47411142D01*
X136365295Y-47411142D02*
X136270057Y-47363523D01*
X136270057Y-47363523D02*
X136222438Y-47315904D01*
X136222438Y-47315904D02*
X136174819Y-47220666D01*
X136174819Y-47220666D02*
X136174819Y-46982571D01*
X136174819Y-46982571D02*
X136222438Y-46839714D01*
X106981809Y-48270438D02*
X106886571Y-48222819D01*
X106886571Y-48222819D02*
X106743714Y-48222819D01*
X106743714Y-48222819D02*
X106600857Y-48270438D01*
X106600857Y-48270438D02*
X106505619Y-48365676D01*
X106505619Y-48365676D02*
X106458000Y-48460914D01*
X106458000Y-48460914D02*
X106410381Y-48651390D01*
X106410381Y-48651390D02*
X106410381Y-48794247D01*
X106410381Y-48794247D02*
X106458000Y-48984723D01*
X106458000Y-48984723D02*
X106505619Y-49079961D01*
X106505619Y-49079961D02*
X106600857Y-49175200D01*
X106600857Y-49175200D02*
X106743714Y-49222819D01*
X106743714Y-49222819D02*
X106838952Y-49222819D01*
X106838952Y-49222819D02*
X106981809Y-49175200D01*
X106981809Y-49175200D02*
X107029428Y-49127580D01*
X107029428Y-49127580D02*
X107029428Y-48794247D01*
X107029428Y-48794247D02*
X106838952Y-48794247D01*
X107458000Y-49222819D02*
X107458000Y-48222819D01*
X107458000Y-48222819D02*
X107838952Y-48222819D01*
X107838952Y-48222819D02*
X107934190Y-48270438D01*
X107934190Y-48270438D02*
X107981809Y-48318057D01*
X107981809Y-48318057D02*
X108029428Y-48413295D01*
X108029428Y-48413295D02*
X108029428Y-48556152D01*
X108029428Y-48556152D02*
X107981809Y-48651390D01*
X107981809Y-48651390D02*
X107934190Y-48699009D01*
X107934190Y-48699009D02*
X107838952Y-48746628D01*
X107838952Y-48746628D02*
X107458000Y-48746628D01*
X108458000Y-49222819D02*
X108458000Y-48222819D01*
X109124666Y-48222819D02*
X109315142Y-48222819D01*
X109315142Y-48222819D02*
X109410380Y-48270438D01*
X109410380Y-48270438D02*
X109505618Y-48365676D01*
X109505618Y-48365676D02*
X109553237Y-48556152D01*
X109553237Y-48556152D02*
X109553237Y-48889485D01*
X109553237Y-48889485D02*
X109505618Y-49079961D01*
X109505618Y-49079961D02*
X109410380Y-49175200D01*
X109410380Y-49175200D02*
X109315142Y-49222819D01*
X109315142Y-49222819D02*
X109124666Y-49222819D01*
X109124666Y-49222819D02*
X109029428Y-49175200D01*
X109029428Y-49175200D02*
X108934190Y-49079961D01*
X108934190Y-49079961D02*
X108886571Y-48889485D01*
X108886571Y-48889485D02*
X108886571Y-48556152D01*
X108886571Y-48556152D02*
X108934190Y-48365676D01*
X108934190Y-48365676D02*
X109029428Y-48270438D01*
X109029428Y-48270438D02*
X109124666Y-48222819D01*
X109886571Y-48222819D02*
X110505618Y-48222819D01*
X110505618Y-48222819D02*
X110172285Y-48603771D01*
X110172285Y-48603771D02*
X110315142Y-48603771D01*
X110315142Y-48603771D02*
X110410380Y-48651390D01*
X110410380Y-48651390D02*
X110457999Y-48699009D01*
X110457999Y-48699009D02*
X110505618Y-48794247D01*
X110505618Y-48794247D02*
X110505618Y-49032342D01*
X110505618Y-49032342D02*
X110457999Y-49127580D01*
X110457999Y-49127580D02*
X110410380Y-49175200D01*
X110410380Y-49175200D02*
X110315142Y-49222819D01*
X110315142Y-49222819D02*
X110029428Y-49222819D01*
X110029428Y-49222819D02*
X109934190Y-49175200D01*
X109934190Y-49175200D02*
X109886571Y-49127580D01*
X117420819Y-69746666D02*
X116944628Y-70079999D01*
X117420819Y-70318094D02*
X116420819Y-70318094D01*
X116420819Y-70318094D02*
X116420819Y-69937142D01*
X116420819Y-69937142D02*
X116468438Y-69841904D01*
X116468438Y-69841904D02*
X116516057Y-69794285D01*
X116516057Y-69794285D02*
X116611295Y-69746666D01*
X116611295Y-69746666D02*
X116754152Y-69746666D01*
X116754152Y-69746666D02*
X116849390Y-69794285D01*
X116849390Y-69794285D02*
X116897009Y-69841904D01*
X116897009Y-69841904D02*
X116944628Y-69937142D01*
X116944628Y-69937142D02*
X116944628Y-70318094D01*
X116754152Y-68889523D02*
X117420819Y-68889523D01*
X116373200Y-69127618D02*
X117087485Y-69365713D01*
X117087485Y-69365713D02*
X117087485Y-68746666D01*
X137638335Y-46079580D02*
X137590716Y-46127200D01*
X137590716Y-46127200D02*
X137447859Y-46174819D01*
X137447859Y-46174819D02*
X137352621Y-46174819D01*
X137352621Y-46174819D02*
X137209764Y-46127200D01*
X137209764Y-46127200D02*
X137114526Y-46031961D01*
X137114526Y-46031961D02*
X137066907Y-45936723D01*
X137066907Y-45936723D02*
X137019288Y-45746247D01*
X137019288Y-45746247D02*
X137019288Y-45603390D01*
X137019288Y-45603390D02*
X137066907Y-45412914D01*
X137066907Y-45412914D02*
X137114526Y-45317676D01*
X137114526Y-45317676D02*
X137209764Y-45222438D01*
X137209764Y-45222438D02*
X137352621Y-45174819D01*
X137352621Y-45174819D02*
X137447859Y-45174819D01*
X137447859Y-45174819D02*
X137590716Y-45222438D01*
X137590716Y-45222438D02*
X137638335Y-45270057D01*
X137971669Y-45174819D02*
X138590716Y-45174819D01*
X138590716Y-45174819D02*
X138257383Y-45555771D01*
X138257383Y-45555771D02*
X138400240Y-45555771D01*
X138400240Y-45555771D02*
X138495478Y-45603390D01*
X138495478Y-45603390D02*
X138543097Y-45651009D01*
X138543097Y-45651009D02*
X138590716Y-45746247D01*
X138590716Y-45746247D02*
X138590716Y-45984342D01*
X138590716Y-45984342D02*
X138543097Y-46079580D01*
X138543097Y-46079580D02*
X138495478Y-46127200D01*
X138495478Y-46127200D02*
X138400240Y-46174819D01*
X138400240Y-46174819D02*
X138114526Y-46174819D01*
X138114526Y-46174819D02*
X138019288Y-46127200D01*
X138019288Y-46127200D02*
X137971669Y-46079580D01*
X103960819Y-70343093D02*
X102960819Y-70343093D01*
X102960819Y-70343093D02*
X102960819Y-70104998D01*
X102960819Y-70104998D02*
X103008438Y-69962141D01*
X103008438Y-69962141D02*
X103103676Y-69866903D01*
X103103676Y-69866903D02*
X103198914Y-69819284D01*
X103198914Y-69819284D02*
X103389390Y-69771665D01*
X103389390Y-69771665D02*
X103532247Y-69771665D01*
X103532247Y-69771665D02*
X103722723Y-69819284D01*
X103722723Y-69819284D02*
X103817961Y-69866903D01*
X103817961Y-69866903D02*
X103913200Y-69962141D01*
X103913200Y-69962141D02*
X103960819Y-70104998D01*
X103960819Y-70104998D02*
X103960819Y-70343093D01*
X102960819Y-69438331D02*
X102960819Y-68819284D01*
X102960819Y-68819284D02*
X103341771Y-69152617D01*
X103341771Y-69152617D02*
X103341771Y-69009760D01*
X103341771Y-69009760D02*
X103389390Y-68914522D01*
X103389390Y-68914522D02*
X103437009Y-68866903D01*
X103437009Y-68866903D02*
X103532247Y-68819284D01*
X103532247Y-68819284D02*
X103770342Y-68819284D01*
X103770342Y-68819284D02*
X103865580Y-68866903D01*
X103865580Y-68866903D02*
X103913200Y-68914522D01*
X103913200Y-68914522D02*
X103960819Y-69009760D01*
X103960819Y-69009760D02*
X103960819Y-69295474D01*
X103960819Y-69295474D02*
X103913200Y-69390712D01*
X103913200Y-69390712D02*
X103865580Y-69438331D01*
X93647142Y-60060434D02*
X93599523Y-60108054D01*
X93599523Y-60108054D02*
X93456666Y-60155673D01*
X93456666Y-60155673D02*
X93361428Y-60155673D01*
X93361428Y-60155673D02*
X93218571Y-60108054D01*
X93218571Y-60108054D02*
X93123333Y-60012815D01*
X93123333Y-60012815D02*
X93075714Y-59917577D01*
X93075714Y-59917577D02*
X93028095Y-59727101D01*
X93028095Y-59727101D02*
X93028095Y-59584244D01*
X93028095Y-59584244D02*
X93075714Y-59393768D01*
X93075714Y-59393768D02*
X93123333Y-59298530D01*
X93123333Y-59298530D02*
X93218571Y-59203292D01*
X93218571Y-59203292D02*
X93361428Y-59155673D01*
X93361428Y-59155673D02*
X93456666Y-59155673D01*
X93456666Y-59155673D02*
X93599523Y-59203292D01*
X93599523Y-59203292D02*
X93647142Y-59250911D01*
X94647142Y-60155673D02*
X94313809Y-59679482D01*
X94075714Y-60155673D02*
X94075714Y-59155673D01*
X94075714Y-59155673D02*
X94456666Y-59155673D01*
X94456666Y-59155673D02*
X94551904Y-59203292D01*
X94551904Y-59203292D02*
X94599523Y-59250911D01*
X94599523Y-59250911D02*
X94647142Y-59346149D01*
X94647142Y-59346149D02*
X94647142Y-59489006D01*
X94647142Y-59489006D02*
X94599523Y-59584244D01*
X94599523Y-59584244D02*
X94551904Y-59631863D01*
X94551904Y-59631863D02*
X94456666Y-59679482D01*
X94456666Y-59679482D02*
X94075714Y-59679482D01*
X95028095Y-59869958D02*
X95504285Y-59869958D01*
X94932857Y-60155673D02*
X95266190Y-59155673D01*
X95266190Y-59155673D02*
X95599523Y-60155673D01*
X96266190Y-59631863D02*
X96409047Y-59679482D01*
X96409047Y-59679482D02*
X96456666Y-59727101D01*
X96456666Y-59727101D02*
X96504285Y-59822339D01*
X96504285Y-59822339D02*
X96504285Y-59965196D01*
X96504285Y-59965196D02*
X96456666Y-60060434D01*
X96456666Y-60060434D02*
X96409047Y-60108054D01*
X96409047Y-60108054D02*
X96313809Y-60155673D01*
X96313809Y-60155673D02*
X95932857Y-60155673D01*
X95932857Y-60155673D02*
X95932857Y-59155673D01*
X95932857Y-59155673D02*
X96266190Y-59155673D01*
X96266190Y-59155673D02*
X96361428Y-59203292D01*
X96361428Y-59203292D02*
X96409047Y-59250911D01*
X96409047Y-59250911D02*
X96456666Y-59346149D01*
X96456666Y-59346149D02*
X96456666Y-59441387D01*
X96456666Y-59441387D02*
X96409047Y-59536625D01*
X96409047Y-59536625D02*
X96361428Y-59584244D01*
X96361428Y-59584244D02*
X96266190Y-59631863D01*
X96266190Y-59631863D02*
X95932857Y-59631863D01*
X97266190Y-59631863D02*
X97409047Y-59679482D01*
X97409047Y-59679482D02*
X97456666Y-59727101D01*
X97456666Y-59727101D02*
X97504285Y-59822339D01*
X97504285Y-59822339D02*
X97504285Y-59965196D01*
X97504285Y-59965196D02*
X97456666Y-60060434D01*
X97456666Y-60060434D02*
X97409047Y-60108054D01*
X97409047Y-60108054D02*
X97313809Y-60155673D01*
X97313809Y-60155673D02*
X96932857Y-60155673D01*
X96932857Y-60155673D02*
X96932857Y-59155673D01*
X96932857Y-59155673D02*
X97266190Y-59155673D01*
X97266190Y-59155673D02*
X97361428Y-59203292D01*
X97361428Y-59203292D02*
X97409047Y-59250911D01*
X97409047Y-59250911D02*
X97456666Y-59346149D01*
X97456666Y-59346149D02*
X97456666Y-59441387D01*
X97456666Y-59441387D02*
X97409047Y-59536625D01*
X97409047Y-59536625D02*
X97361428Y-59584244D01*
X97361428Y-59584244D02*
X97266190Y-59631863D01*
X97266190Y-59631863D02*
X96932857Y-59631863D01*
X98123333Y-59679482D02*
X98123333Y-60155673D01*
X97790000Y-59155673D02*
X98123333Y-59679482D01*
X98123333Y-59679482D02*
X98456666Y-59155673D01*
X99885238Y-59631863D02*
X100028095Y-59679482D01*
X100028095Y-59679482D02*
X100075714Y-59727101D01*
X100075714Y-59727101D02*
X100123333Y-59822339D01*
X100123333Y-59822339D02*
X100123333Y-59965196D01*
X100123333Y-59965196D02*
X100075714Y-60060434D01*
X100075714Y-60060434D02*
X100028095Y-60108054D01*
X100028095Y-60108054D02*
X99932857Y-60155673D01*
X99932857Y-60155673D02*
X99551905Y-60155673D01*
X99551905Y-60155673D02*
X99551905Y-59155673D01*
X99551905Y-59155673D02*
X99885238Y-59155673D01*
X99885238Y-59155673D02*
X99980476Y-59203292D01*
X99980476Y-59203292D02*
X100028095Y-59250911D01*
X100028095Y-59250911D02*
X100075714Y-59346149D01*
X100075714Y-59346149D02*
X100075714Y-59441387D01*
X100075714Y-59441387D02*
X100028095Y-59536625D01*
X100028095Y-59536625D02*
X99980476Y-59584244D01*
X99980476Y-59584244D02*
X99885238Y-59631863D01*
X99885238Y-59631863D02*
X99551905Y-59631863D01*
X100742381Y-59155673D02*
X100932857Y-59155673D01*
X100932857Y-59155673D02*
X101028095Y-59203292D01*
X101028095Y-59203292D02*
X101123333Y-59298530D01*
X101123333Y-59298530D02*
X101170952Y-59489006D01*
X101170952Y-59489006D02*
X101170952Y-59822339D01*
X101170952Y-59822339D02*
X101123333Y-60012815D01*
X101123333Y-60012815D02*
X101028095Y-60108054D01*
X101028095Y-60108054D02*
X100932857Y-60155673D01*
X100932857Y-60155673D02*
X100742381Y-60155673D01*
X100742381Y-60155673D02*
X100647143Y-60108054D01*
X100647143Y-60108054D02*
X100551905Y-60012815D01*
X100551905Y-60012815D02*
X100504286Y-59822339D01*
X100504286Y-59822339D02*
X100504286Y-59489006D01*
X100504286Y-59489006D02*
X100551905Y-59298530D01*
X100551905Y-59298530D02*
X100647143Y-59203292D01*
X100647143Y-59203292D02*
X100742381Y-59155673D01*
X101599524Y-60155673D02*
X101599524Y-59155673D01*
X102075714Y-59631863D02*
X102409047Y-59631863D01*
X102551904Y-60155673D02*
X102075714Y-60155673D01*
X102075714Y-60155673D02*
X102075714Y-59155673D01*
X102075714Y-59155673D02*
X102551904Y-59155673D01*
X106981809Y-45730438D02*
X106886571Y-45682819D01*
X106886571Y-45682819D02*
X106743714Y-45682819D01*
X106743714Y-45682819D02*
X106600857Y-45730438D01*
X106600857Y-45730438D02*
X106505619Y-45825676D01*
X106505619Y-45825676D02*
X106458000Y-45920914D01*
X106458000Y-45920914D02*
X106410381Y-46111390D01*
X106410381Y-46111390D02*
X106410381Y-46254247D01*
X106410381Y-46254247D02*
X106458000Y-46444723D01*
X106458000Y-46444723D02*
X106505619Y-46539961D01*
X106505619Y-46539961D02*
X106600857Y-46635200D01*
X106600857Y-46635200D02*
X106743714Y-46682819D01*
X106743714Y-46682819D02*
X106838952Y-46682819D01*
X106838952Y-46682819D02*
X106981809Y-46635200D01*
X106981809Y-46635200D02*
X107029428Y-46587580D01*
X107029428Y-46587580D02*
X107029428Y-46254247D01*
X107029428Y-46254247D02*
X106838952Y-46254247D01*
X107458000Y-46682819D02*
X107458000Y-45682819D01*
X107458000Y-45682819D02*
X107838952Y-45682819D01*
X107838952Y-45682819D02*
X107934190Y-45730438D01*
X107934190Y-45730438D02*
X107981809Y-45778057D01*
X107981809Y-45778057D02*
X108029428Y-45873295D01*
X108029428Y-45873295D02*
X108029428Y-46016152D01*
X108029428Y-46016152D02*
X107981809Y-46111390D01*
X107981809Y-46111390D02*
X107934190Y-46159009D01*
X107934190Y-46159009D02*
X107838952Y-46206628D01*
X107838952Y-46206628D02*
X107458000Y-46206628D01*
X108648476Y-45682819D02*
X108838952Y-45682819D01*
X108838952Y-45682819D02*
X108934190Y-45730438D01*
X108934190Y-45730438D02*
X109029428Y-45825676D01*
X109029428Y-45825676D02*
X109077047Y-46016152D01*
X109077047Y-46016152D02*
X109077047Y-46349485D01*
X109077047Y-46349485D02*
X109029428Y-46539961D01*
X109029428Y-46539961D02*
X108934190Y-46635200D01*
X108934190Y-46635200D02*
X108838952Y-46682819D01*
X108838952Y-46682819D02*
X108648476Y-46682819D01*
X108648476Y-46682819D02*
X108553238Y-46635200D01*
X108553238Y-46635200D02*
X108458000Y-46539961D01*
X108458000Y-46539961D02*
X108410381Y-46349485D01*
X108410381Y-46349485D02*
X108410381Y-46016152D01*
X108410381Y-46016152D02*
X108458000Y-45825676D01*
X108458000Y-45825676D02*
X108553238Y-45730438D01*
X108553238Y-45730438D02*
X108648476Y-45682819D01*
X109505619Y-46682819D02*
X109505619Y-45682819D01*
X109934190Y-45778057D02*
X109981809Y-45730438D01*
X109981809Y-45730438D02*
X110077047Y-45682819D01*
X110077047Y-45682819D02*
X110315142Y-45682819D01*
X110315142Y-45682819D02*
X110410380Y-45730438D01*
X110410380Y-45730438D02*
X110457999Y-45778057D01*
X110457999Y-45778057D02*
X110505618Y-45873295D01*
X110505618Y-45873295D02*
X110505618Y-45968533D01*
X110505618Y-45968533D02*
X110457999Y-46111390D01*
X110457999Y-46111390D02*
X109886571Y-46682819D01*
X109886571Y-46682819D02*
X110505618Y-46682819D01*
X121340666Y-69812819D02*
X121340666Y-70527104D01*
X121340666Y-70527104D02*
X121293047Y-70669961D01*
X121293047Y-70669961D02*
X121197809Y-70765200D01*
X121197809Y-70765200D02*
X121054952Y-70812819D01*
X121054952Y-70812819D02*
X120959714Y-70812819D01*
X121816857Y-70812819D02*
X121816857Y-69812819D01*
X121816857Y-69812819D02*
X122197809Y-69812819D01*
X122197809Y-69812819D02*
X122293047Y-69860438D01*
X122293047Y-69860438D02*
X122340666Y-69908057D01*
X122340666Y-69908057D02*
X122388285Y-70003295D01*
X122388285Y-70003295D02*
X122388285Y-70146152D01*
X122388285Y-70146152D02*
X122340666Y-70241390D01*
X122340666Y-70241390D02*
X122293047Y-70289009D01*
X122293047Y-70289009D02*
X122197809Y-70336628D01*
X122197809Y-70336628D02*
X121816857Y-70336628D01*
X123340666Y-70812819D02*
X122769238Y-70812819D01*
X123054952Y-70812819D02*
X123054952Y-69812819D01*
X123054952Y-69812819D02*
X122959714Y-69955676D01*
X122959714Y-69955676D02*
X122864476Y-70050914D01*
X122864476Y-70050914D02*
X122769238Y-70098533D01*
X124745905Y-67018819D02*
X125364952Y-67018819D01*
X125364952Y-67018819D02*
X125031619Y-67399771D01*
X125031619Y-67399771D02*
X125174476Y-67399771D01*
X125174476Y-67399771D02*
X125269714Y-67447390D01*
X125269714Y-67447390D02*
X125317333Y-67495009D01*
X125317333Y-67495009D02*
X125364952Y-67590247D01*
X125364952Y-67590247D02*
X125364952Y-67828342D01*
X125364952Y-67828342D02*
X125317333Y-67923580D01*
X125317333Y-67923580D02*
X125269714Y-67971200D01*
X125269714Y-67971200D02*
X125174476Y-68018819D01*
X125174476Y-68018819D02*
X124888762Y-68018819D01*
X124888762Y-68018819D02*
X124793524Y-67971200D01*
X124793524Y-67971200D02*
X124745905Y-67923580D01*
X125650667Y-67018819D02*
X125984000Y-68018819D01*
X125984000Y-68018819D02*
X126317333Y-67018819D01*
X126555429Y-67018819D02*
X127174476Y-67018819D01*
X127174476Y-67018819D02*
X126841143Y-67399771D01*
X126841143Y-67399771D02*
X126984000Y-67399771D01*
X126984000Y-67399771D02*
X127079238Y-67447390D01*
X127079238Y-67447390D02*
X127126857Y-67495009D01*
X127126857Y-67495009D02*
X127174476Y-67590247D01*
X127174476Y-67590247D02*
X127174476Y-67828342D01*
X127174476Y-67828342D02*
X127126857Y-67923580D01*
X127126857Y-67923580D02*
X127079238Y-67971200D01*
X127079238Y-67971200D02*
X126984000Y-68018819D01*
X126984000Y-68018819D02*
X126698286Y-68018819D01*
X126698286Y-68018819D02*
X126603048Y-67971200D01*
X126603048Y-67971200D02*
X126555429Y-67923580D01*
D12*
X117110000Y-67067738D02*
X117014762Y-67020119D01*
X117014762Y-67020119D02*
X116871905Y-67020119D01*
X116871905Y-67020119D02*
X116729048Y-67067738D01*
X116729048Y-67067738D02*
X116633810Y-67162976D01*
X116633810Y-67162976D02*
X116586191Y-67258214D01*
X116586191Y-67258214D02*
X116538572Y-67448690D01*
X116538572Y-67448690D02*
X116538572Y-67591547D01*
X116538572Y-67591547D02*
X116586191Y-67782023D01*
X116586191Y-67782023D02*
X116633810Y-67877261D01*
X116633810Y-67877261D02*
X116729048Y-67972500D01*
X116729048Y-67972500D02*
X116871905Y-68020119D01*
X116871905Y-68020119D02*
X116967143Y-68020119D01*
X116967143Y-68020119D02*
X117110000Y-67972500D01*
X117110000Y-67972500D02*
X117157619Y-67924880D01*
X117157619Y-67924880D02*
X117157619Y-67591547D01*
X117157619Y-67591547D02*
X116967143Y-67591547D01*
X117586191Y-68020119D02*
X117586191Y-67020119D01*
X117586191Y-67020119D02*
X117967143Y-67020119D01*
X117967143Y-67020119D02*
X118062381Y-67067738D01*
X118062381Y-67067738D02*
X118110000Y-67115357D01*
X118110000Y-67115357D02*
X118157619Y-67210595D01*
X118157619Y-67210595D02*
X118157619Y-67353452D01*
X118157619Y-67353452D02*
X118110000Y-67448690D01*
X118110000Y-67448690D02*
X118062381Y-67496309D01*
X118062381Y-67496309D02*
X117967143Y-67543928D01*
X117967143Y-67543928D02*
X117586191Y-67543928D01*
X118586191Y-68020119D02*
X118586191Y-67020119D01*
X119252857Y-67020119D02*
X119443333Y-67020119D01*
X119443333Y-67020119D02*
X119538571Y-67067738D01*
X119538571Y-67067738D02*
X119633809Y-67162976D01*
X119633809Y-67162976D02*
X119681428Y-67353452D01*
X119681428Y-67353452D02*
X119681428Y-67686785D01*
X119681428Y-67686785D02*
X119633809Y-67877261D01*
X119633809Y-67877261D02*
X119538571Y-67972500D01*
X119538571Y-67972500D02*
X119443333Y-68020119D01*
X119443333Y-68020119D02*
X119252857Y-68020119D01*
X119252857Y-68020119D02*
X119157619Y-67972500D01*
X119157619Y-67972500D02*
X119062381Y-67877261D01*
X119062381Y-67877261D02*
X119014762Y-67686785D01*
X119014762Y-67686785D02*
X119014762Y-67353452D01*
X119014762Y-67353452D02*
X119062381Y-67162976D01*
X119062381Y-67162976D02*
X119157619Y-67067738D01*
X119157619Y-67067738D02*
X119252857Y-67020119D01*
D10*
X100909333Y-65098819D02*
X100576000Y-64622628D01*
X100337905Y-65098819D02*
X100337905Y-64098819D01*
X100337905Y-64098819D02*
X100718857Y-64098819D01*
X100718857Y-64098819D02*
X100814095Y-64146438D01*
X100814095Y-64146438D02*
X100861714Y-64194057D01*
X100861714Y-64194057D02*
X100909333Y-64289295D01*
X100909333Y-64289295D02*
X100909333Y-64432152D01*
X100909333Y-64432152D02*
X100861714Y-64527390D01*
X100861714Y-64527390D02*
X100814095Y-64575009D01*
X100814095Y-64575009D02*
X100718857Y-64622628D01*
X100718857Y-64622628D02*
X100337905Y-64622628D01*
X101290286Y-64194057D02*
X101337905Y-64146438D01*
X101337905Y-64146438D02*
X101433143Y-64098819D01*
X101433143Y-64098819D02*
X101671238Y-64098819D01*
X101671238Y-64098819D02*
X101766476Y-64146438D01*
X101766476Y-64146438D02*
X101814095Y-64194057D01*
X101814095Y-64194057D02*
X101861714Y-64289295D01*
X101861714Y-64289295D02*
X101861714Y-64384533D01*
X101861714Y-64384533D02*
X101814095Y-64527390D01*
X101814095Y-64527390D02*
X101242667Y-65098819D01*
X101242667Y-65098819D02*
X101861714Y-65098819D01*
X153924452Y-45794819D02*
X153591119Y-45318628D01*
X153353024Y-45794819D02*
X153353024Y-44794819D01*
X153353024Y-44794819D02*
X153733976Y-44794819D01*
X153733976Y-44794819D02*
X153829214Y-44842438D01*
X153829214Y-44842438D02*
X153876833Y-44890057D01*
X153876833Y-44890057D02*
X153924452Y-44985295D01*
X153924452Y-44985295D02*
X153924452Y-45128152D01*
X153924452Y-45128152D02*
X153876833Y-45223390D01*
X153876833Y-45223390D02*
X153829214Y-45271009D01*
X153829214Y-45271009D02*
X153733976Y-45318628D01*
X153733976Y-45318628D02*
X153353024Y-45318628D01*
X154781595Y-45128152D02*
X154781595Y-45794819D01*
X154543500Y-44747200D02*
X154305405Y-45461485D01*
X154305405Y-45461485D02*
X154924452Y-45461485D01*
X155257786Y-44890057D02*
X155305405Y-44842438D01*
X155305405Y-44842438D02*
X155400643Y-44794819D01*
X155400643Y-44794819D02*
X155638738Y-44794819D01*
X155638738Y-44794819D02*
X155733976Y-44842438D01*
X155733976Y-44842438D02*
X155781595Y-44890057D01*
X155781595Y-44890057D02*
X155829214Y-44985295D01*
X155829214Y-44985295D02*
X155829214Y-45080533D01*
X155829214Y-45080533D02*
X155781595Y-45223390D01*
X155781595Y-45223390D02*
X155210167Y-45794819D01*
X155210167Y-45794819D02*
X155829214Y-45794819D01*
X156448262Y-44794819D02*
X156543500Y-44794819D01*
X156543500Y-44794819D02*
X156638738Y-44842438D01*
X156638738Y-44842438D02*
X156686357Y-44890057D01*
X156686357Y-44890057D02*
X156733976Y-44985295D01*
X156733976Y-44985295D02*
X156781595Y-45175771D01*
X156781595Y-45175771D02*
X156781595Y-45413866D01*
X156781595Y-45413866D02*
X156733976Y-45604342D01*
X156733976Y-45604342D02*
X156686357Y-45699580D01*
X156686357Y-45699580D02*
X156638738Y-45747200D01*
X156638738Y-45747200D02*
X156543500Y-45794819D01*
X156543500Y-45794819D02*
X156448262Y-45794819D01*
X156448262Y-45794819D02*
X156353024Y-45747200D01*
X156353024Y-45747200D02*
X156305405Y-45699580D01*
X156305405Y-45699580D02*
X156257786Y-45604342D01*
X156257786Y-45604342D02*
X156210167Y-45413866D01*
X156210167Y-45413866D02*
X156210167Y-45175771D01*
X156210167Y-45175771D02*
X156257786Y-44985295D01*
X156257786Y-44985295D02*
X156305405Y-44890057D01*
X156305405Y-44890057D02*
X156353024Y-44842438D01*
X156353024Y-44842438D02*
X156448262Y-44794819D01*
X144429580Y-56304165D02*
X144477200Y-56351784D01*
X144477200Y-56351784D02*
X144524819Y-56494641D01*
X144524819Y-56494641D02*
X144524819Y-56589879D01*
X144524819Y-56589879D02*
X144477200Y-56732736D01*
X144477200Y-56732736D02*
X144381961Y-56827974D01*
X144381961Y-56827974D02*
X144286723Y-56875593D01*
X144286723Y-56875593D02*
X144096247Y-56923212D01*
X144096247Y-56923212D02*
X143953390Y-56923212D01*
X143953390Y-56923212D02*
X143762914Y-56875593D01*
X143762914Y-56875593D02*
X143667676Y-56827974D01*
X143667676Y-56827974D02*
X143572438Y-56732736D01*
X143572438Y-56732736D02*
X143524819Y-56589879D01*
X143524819Y-56589879D02*
X143524819Y-56494641D01*
X143524819Y-56494641D02*
X143572438Y-56351784D01*
X143572438Y-56351784D02*
X143620057Y-56304165D01*
X144524819Y-55351784D02*
X144524819Y-55923212D01*
X144524819Y-55637498D02*
X143524819Y-55637498D01*
X143524819Y-55637498D02*
X143667676Y-55732736D01*
X143667676Y-55732736D02*
X143762914Y-55827974D01*
X143762914Y-55827974D02*
X143810533Y-55923212D01*
D13*
%TO.C,D1*%
X93020000Y-68604999D02*
X93020000Y-71464999D01*
X93020000Y-71464999D02*
X94940000Y-71464999D01*
X94940000Y-71464999D02*
X94940000Y-68604999D01*
%TO.C,JP OPT*%
X140910000Y-67250000D02*
X148650000Y-67250000D01*
X140910000Y-69850000D02*
X140910000Y-67250000D01*
X140910000Y-72450000D02*
X140910000Y-71120000D01*
X142240000Y-72450000D02*
X140910000Y-72450000D01*
X143510000Y-69850000D02*
X140910000Y-69850000D01*
X143510000Y-72450000D02*
X143510000Y-69850000D01*
X143510000Y-72450000D02*
X148650000Y-72450000D01*
X148650000Y-72450000D02*
X148650000Y-67250000D01*
%TO.C,D4*%
X109784000Y-68605000D02*
X109784000Y-71465000D01*
X109784000Y-71465000D02*
X111704000Y-71465000D01*
X111704000Y-71465000D02*
X111704000Y-68605000D01*
%TO.C,R1*%
X95260936Y-65559000D02*
X95715064Y-65559000D01*
X95260936Y-67029000D02*
X95715064Y-67029000D01*
%TO.C,C2*%
X146603766Y-45210000D02*
X146311232Y-45210000D01*
X146603766Y-46230000D02*
X146311232Y-46230000D01*
%TO.C,C4*%
X142110000Y-55991232D02*
X142110000Y-56283766D01*
X143130000Y-55991232D02*
X143130000Y-56283766D01*
D14*
%TO.C,U1*%
X116767000Y-44019500D02*
X116767000Y-45171000D01*
D15*
X116767000Y-64348000D02*
X134567000Y-64348000D01*
X117438541Y-43348000D02*
X116767000Y-44019500D01*
D14*
X121163000Y-49276000D02*
X121159476Y-43357985D01*
D15*
X130162000Y-49276000D02*
X121163000Y-49276000D01*
D14*
X130162000Y-49276000D02*
X130165880Y-43336369D01*
D15*
X134567000Y-43348000D02*
X117438541Y-43348000D01*
D13*
%TO.C,D2*%
X98608000Y-68604999D02*
X98608000Y-71464999D01*
X98608000Y-71464999D02*
X100528000Y-71464999D01*
X100528000Y-71464999D02*
X100528000Y-68604999D01*
%TO.C,REF\u002A\u002A*%
X107764000Y-72565000D02*
X107764000Y-72400000D01*
X107764000Y-74920000D02*
X107764000Y-74755000D01*
X110944000Y-72580000D02*
X110944000Y-72400000D01*
X110944000Y-74920000D02*
X110944000Y-74740000D01*
X111064000Y-72580000D02*
X111064000Y-72400000D01*
X111064000Y-74920000D02*
X111064000Y-74740000D01*
X111184000Y-72400000D02*
X107764000Y-72400000D01*
X111184000Y-72580000D02*
X111184000Y-72400000D01*
X111184000Y-74920000D02*
X107764000Y-74920000D01*
X111184000Y-74920000D02*
X111184000Y-74740000D01*
%TO.C,SW1*%
X81654000Y-58550000D02*
X81654000Y-68450000D01*
X83439000Y-61470000D02*
X83439000Y-65530000D01*
X83439000Y-65530000D02*
X84709000Y-65530000D01*
X83509000Y-61470000D02*
X83509000Y-62823333D01*
X83629000Y-61470000D02*
X83629000Y-62823333D01*
X83749000Y-61470000D02*
X83749000Y-62823333D01*
X83869000Y-61470000D02*
X83869000Y-62823333D01*
X83989000Y-61470000D02*
X83989000Y-62823333D01*
X84109000Y-61470000D02*
X84109000Y-62823333D01*
X84229000Y-61470000D02*
X84229000Y-62823333D01*
X84349000Y-61470000D02*
X84349000Y-62823333D01*
X84469000Y-61470000D02*
X84469000Y-62823333D01*
X84589000Y-61470000D02*
X84589000Y-62823333D01*
X84709000Y-61470000D02*
X83439000Y-61470000D01*
X84709000Y-62823333D02*
X83439000Y-62823333D01*
X84709000Y-65530000D02*
X84709000Y-61470000D01*
X86494000Y-58550000D02*
X81654000Y-58550000D01*
X86494000Y-58550000D02*
X86494000Y-68450000D01*
X86494000Y-68450000D02*
X81654000Y-68450000D01*
X86734000Y-58310000D02*
X85351000Y-58310000D01*
X86734000Y-58310000D02*
X86734000Y-59694000D01*
%TO.C,R3*%
X106468936Y-65559000D02*
X106923064Y-65559000D01*
X106468936Y-67029000D02*
X106923064Y-67029000D01*
%TO.C,REF\u002A\u002A*%
X91000000Y-72565000D02*
X91000000Y-72400000D01*
X91000000Y-74920000D02*
X91000000Y-74755000D01*
X94180000Y-72580000D02*
X94180000Y-72400000D01*
X94180000Y-74920000D02*
X94180000Y-74740000D01*
X94300000Y-72580000D02*
X94300000Y-72400000D01*
X94300000Y-74920000D02*
X94300000Y-74740000D01*
X94420000Y-72400000D02*
X91000000Y-72400000D01*
X94420000Y-72580000D02*
X94420000Y-72400000D01*
X94420000Y-74920000D02*
X91000000Y-74920000D01*
X94420000Y-74920000D02*
X94420000Y-74740000D01*
%TO.C,U2*%
X137600000Y-46973000D02*
X137600000Y-53313000D01*
X147686667Y-46593000D02*
X149720000Y-46593000D01*
X149340000Y-46973000D02*
X137600000Y-46973000D01*
X149340000Y-46973000D02*
X149340000Y-53313000D01*
X149340000Y-53313000D02*
X137600000Y-53313000D01*
X149720000Y-46593000D02*
X149720000Y-48626333D01*
%TO.C,GPIO3*%
X110806000Y-48068000D02*
X112206000Y-48068000D01*
X110806000Y-49468000D02*
X110806000Y-48068000D01*
X112206000Y-48068000D02*
X112206000Y-49468000D01*
X112206000Y-49468000D02*
X110806000Y-49468000D01*
%TO.C,R4*%
X114581000Y-69352936D02*
X114581000Y-69807064D01*
X116051000Y-69352936D02*
X116051000Y-69807064D01*
%TO.C,C3*%
X140708768Y-45210000D02*
X140416234Y-45210000D01*
X140708768Y-46230000D02*
X140416234Y-46230000D01*
%TO.C,D3*%
X104196000Y-68604999D02*
X104196000Y-71464999D01*
X104196000Y-71464999D02*
X106116000Y-71464999D01*
X106116000Y-71464999D02*
X106116000Y-68604999D01*
%TO.C,GPOI2*%
X110806000Y-45528000D02*
X112206000Y-45528000D01*
X110806000Y-46928000D02*
X110806000Y-45528000D01*
X112206000Y-45528000D02*
X112206000Y-46928000D01*
X112206000Y-46928000D02*
X110806000Y-46928000D01*
%TO.C,REF\u002A\u002A*%
X96588000Y-72565000D02*
X96588000Y-72400000D01*
X96588000Y-74920000D02*
X96588000Y-74755000D01*
X99768000Y-72580000D02*
X99768000Y-72400000D01*
X99768000Y-74920000D02*
X99768000Y-74740000D01*
X99888000Y-72580000D02*
X99888000Y-72400000D01*
X99888000Y-74920000D02*
X99888000Y-74740000D01*
X100008000Y-72400000D02*
X96588000Y-72400000D01*
X100008000Y-72580000D02*
X100008000Y-72400000D01*
X100008000Y-74920000D02*
X96588000Y-74920000D01*
X100008000Y-74920000D02*
X100008000Y-74740000D01*
%TO.C,JP1*%
X120124000Y-68626000D02*
X120124000Y-68026000D01*
X120774000Y-67326000D02*
X123574000Y-67326000D01*
X123574000Y-69326000D02*
X120774000Y-69326000D01*
X124224000Y-68026000D02*
X124224000Y-68626000D01*
X120124000Y-68026000D02*
G75*
G02*
X120824000Y-67326000I699999J1D01*
G01*
X120824000Y-69326000D02*
G75*
G02*
X120124000Y-68626000I-1J699999D01*
G01*
X123524000Y-67326000D02*
G75*
G02*
X124224000Y-68026000I0J-700000D01*
G01*
X124224000Y-68626000D02*
G75*
G02*
X123524000Y-69326000I-700000J0D01*
G01*
%TO.C,R2*%
X100848936Y-65559000D02*
X101303064Y-65559000D01*
X100848936Y-67029000D02*
X101303064Y-67029000D01*
%TO.C,R420*%
X154816436Y-46255000D02*
X155270564Y-46255000D01*
X154816436Y-47725000D02*
X155270564Y-47725000D01*
%TO.C,REF\u002A\u002A*%
X102176000Y-72565000D02*
X102176000Y-72400000D01*
X102176000Y-74920000D02*
X102176000Y-74755000D01*
X105356000Y-72580000D02*
X105356000Y-72400000D01*
X105356000Y-74920000D02*
X105356000Y-74740000D01*
X105476000Y-72580000D02*
X105476000Y-72400000D01*
X105476000Y-74920000D02*
X105476000Y-74740000D01*
X105596000Y-72400000D02*
X102176000Y-72400000D01*
X105596000Y-72580000D02*
X105596000Y-72400000D01*
X105596000Y-74920000D02*
X102176000Y-74920000D01*
X105596000Y-74920000D02*
X105596000Y-74740000D01*
%TO.C,C1*%
X144990000Y-56283766D02*
X144990000Y-55991232D01*
X146010000Y-56283766D02*
X146010000Y-55991232D01*
%TD*%
M02*
