%TF.GenerationSoftware,KiCad,Pcbnew,8.0.1*%
%TF.CreationDate,2025-08-12T22:43:48+02:00*%
%TF.ProjectId,niclas-alarmmelder-pro,6e69636c-6173-42d6-916c-61726d6d656c,rev?*%
%TF.SameCoordinates,Original*%
%TF.FileFunction,Profile,NP*%
%FSLAX46Y46*%
G04 Gerber Fmt 4.6, Leading zero omitted, Abs format (unit mm)*
G04 Created by KiCad (PCBNEW 8.0.1) date 2025-08-12 22:43:48*
%MOMM*%
%LPD*%
G01*
G04 APERTURE LIST*
%TA.AperFunction,Profile*%
%ADD10C,0.050000*%
%TD*%
G04 APERTURE END LIST*
D10*
X81636394Y-46990000D02*
G75*
G02*
X78383606Y-46990000I-1626394J0D01*
G01*
X78383606Y-46990000D02*
G75*
G02*
X81636394Y-46990000I1626394J0D01*
G01*
X76200000Y-46990000D02*
X76200000Y-72390000D01*
X176824000Y-62516000D02*
X181824000Y-62516000D01*
X181824000Y-64516000D01*
X176824000Y-64516000D01*
X176824000Y-62516000D01*
X183389350Y-72390000D02*
G75*
G02*
X179679442Y-76200000I-3811350J0D01*
G01*
X80010000Y-76200000D02*
X179679442Y-76200000D01*
X81636394Y-72390000D02*
G75*
G02*
X78383606Y-72390000I-1626394J0D01*
G01*
X78383606Y-72390000D02*
G75*
G02*
X81636394Y-72390000I1626394J0D01*
G01*
X80010000Y-76200000D02*
G75*
G02*
X76200000Y-72390000I0J3810000D01*
G01*
X179832000Y-43180000D02*
X80010000Y-43180000D01*
X179832000Y-43180000D02*
G75*
G02*
X183388000Y-46736000I0J-3556000D01*
G01*
X173838394Y-46990000D02*
G75*
G02*
X170585606Y-46990000I-1626394J0D01*
G01*
X170585606Y-46990000D02*
G75*
G02*
X173838394Y-46990000I1626394J0D01*
G01*
X76200000Y-46990000D02*
G75*
G02*
X80010000Y-43180000I3810000J0D01*
G01*
X176864000Y-54896000D02*
X181864000Y-54896000D01*
X181864000Y-56896000D01*
X176864000Y-56896000D01*
X176864000Y-54896000D01*
X183389350Y-72390000D02*
X183388000Y-46736000D01*
X181204394Y-72390000D02*
G75*
G02*
X177951606Y-72390000I-1626394J0D01*
G01*
X177951606Y-72390000D02*
G75*
G02*
X181204394Y-72390000I1626394J0D01*
G01*
M02*
